solid OpenSCAD_Model
  facet normal -1 0 0
    outer loop
      vertex 0.599999 2.425 0.0999994
      vertex 0.599999 2.9 1.55
      vertex 0.599999 2.9 0.0999994
    endloop
  endfacet
  facet normal -1 0 0
    outer loop
      vertex 0.599999 2.025 0.0999994
      vertex 0.599999 2.9 1.55
      vertex 0.599999 2.425 0.0999994
    endloop
  endfacet
  facet normal -1 0 0
    outer loop
      vertex 0.599999 1.625 0.0999994
      vertex 0.599999 2.9 1.55
      vertex 0.599999 2.025 0.0999994
    endloop
  endfacet
  facet normal -1 0 0
    outer loop
      vertex 0.599999 0 1.55
      vertex 0.599999 1.625 0.0999994
      vertex 0.599999 1.225 0.0999994
    endloop
  endfacet
  facet normal -1 0 0
    outer loop
      vertex 0.599999 0 1.55
      vertex 0.599999 1.225 0.0999994
      vertex 0.599999 0.825 0.0999994
    endloop
  endfacet
  facet normal -1 0 0
    outer loop
      vertex 0.599999 0 1.55
      vertex 0.599999 0.825 0.0999994
      vertex 0.599999 0.424999 0.0999994
    endloop
  endfacet
  facet normal -1 0 0
    outer loop
      vertex 0.599999 0 1.55
      vertex 0.599999 0.424999 0.0999994
      vertex 0.599999 0 0.0999994
    endloop
  endfacet
  facet normal -1 0 0
    outer loop
      vertex 0.599999 1.625 0.0999994
      vertex 0.599999 0 1.55
      vertex 0.599999 2.9 1.55
    endloop
  endfacet
  facet normal -0 0 1
    outer loop
      vertex 0.599999 2.9 1.55
      vertex 2.2 0 1.55
      vertex 2.2 2.9 1.55
    endloop
  endfacet
  facet normal 0 0 1
    outer loop
      vertex 2.2 0 1.55
      vertex 0.599999 2.9 1.55
      vertex 0.599999 0 1.55
    endloop
  endfacet
  facet normal 1 0 0
    outer loop
      vertex 2.2 2.9 1.55
      vertex 2.2 2.425 0.0999994
      vertex 2.2 2.9 0.0999994
    endloop
  endfacet
  facet normal 1 0 0
    outer loop
      vertex 2.2 2.9 1.55
      vertex 2.2 2.025 0.0999994
      vertex 2.2 2.425 0.0999994
    endloop
  endfacet
  facet normal 1 0 0
    outer loop
      vertex 2.2 2.9 1.55
      vertex 2.2 1.625 0.0999994
      vertex 2.2 2.025 0.0999994
    endloop
  endfacet
  facet normal 1 -0 0
    outer loop
      vertex 2.2 0 1.55
      vertex 2.2 1.625 0.0999994
      vertex 2.2 2.9 1.55
    endloop
  endfacet
  facet normal 1 0 0
    outer loop
      vertex 2.2 1.625 0.0999994
      vertex 2.2 0 1.55
      vertex 2.2 1.225 0.0999994
    endloop
  endfacet
  facet normal 1 0 0
    outer loop
      vertex 2.2 1.225 0.0999994
      vertex 2.2 0 1.55
      vertex 2.2 0.825 0.0999994
    endloop
  endfacet
  facet normal 1 0 0
    outer loop
      vertex 2.2 0.825 0.0999994
      vertex 2.2 0 1.55
      vertex 2.2 0.424999 0.0999994
    endloop
  endfacet
  facet normal 1 0 0
    outer loop
      vertex 2.2 0.424999 0.0999994
      vertex 2.2 0 1.55
      vertex 2.2 0 0.0999994
    endloop
  endfacet
  facet normal 0 1 -0
    outer loop
      vertex 2.2 2.9 0.0999994
      vertex 0.599999 2.9 1.55
      vertex 2.2 2.9 1.55
    endloop
  endfacet
  facet normal 0 1 0
    outer loop
      vertex 0.599999 2.9 1.55
      vertex 2.2 2.9 0.0999994
      vertex 0.599999 2.9 0.0999994
    endloop
  endfacet
  facet normal -0 0 1
    outer loop
      vertex 0 2.425 0.0999994
      vertex 0.599999 2.025 0.0999994
      vertex 0.599999 2.425 0.0999994
    endloop
  endfacet
  facet normal 0 0 1
    outer loop
      vertex 0.599999 2.025 0.0999994
      vertex 0 2.425 0.0999994
      vertex 0 2.025 0.0999994
    endloop
  endfacet
  facet normal -0 0 1
    outer loop
      vertex 2.2 2.425 0.0999994
      vertex 2.8 2.025 0.0999994
      vertex 2.8 2.425 0.0999994
    endloop
  endfacet
  facet normal 0 0 1
    outer loop
      vertex 2.8 2.025 0.0999994
      vertex 2.2 2.425 0.0999994
      vertex 2.2 2.025 0.0999994
    endloop
  endfacet
  facet normal -0 0 1
    outer loop
      vertex 0 1.625 0.0999994
      vertex 0.599999 1.225 0.0999994
      vertex 0.599999 1.625 0.0999994
    endloop
  endfacet
  facet normal 0 0 1
    outer loop
      vertex 0.599999 1.225 0.0999994
      vertex 0 1.625 0.0999994
      vertex 0 1.225 0.0999994
    endloop
  endfacet
  facet normal -0 0 1
    outer loop
      vertex 2.2 1.625 0.0999994
      vertex 2.8 1.225 0.0999994
      vertex 2.8 1.625 0.0999994
    endloop
  endfacet
  facet normal 0 0 1
    outer loop
      vertex 2.8 1.225 0.0999994
      vertex 2.2 1.625 0.0999994
      vertex 2.2 1.225 0.0999994
    endloop
  endfacet
  facet normal -0 0 1
    outer loop
      vertex 0 0.825 0.0999994
      vertex 0.599999 0.424999 0.0999994
      vertex 0.599999 0.825 0.0999994
    endloop
  endfacet
  facet normal 0 0 1
    outer loop
      vertex 0.599999 0.424999 0.0999994
      vertex 0 0.825 0.0999994
      vertex 0 0.424999 0.0999994
    endloop
  endfacet
  facet normal -0 0 1
    outer loop
      vertex 2.2 0.825 0.0999994
      vertex 2.8 0.424999 0.0999994
      vertex 2.8 0.825 0.0999994
    endloop
  endfacet
  facet normal 0 0 1
    outer loop
      vertex 2.8 0.424999 0.0999994
      vertex 2.2 0.825 0.0999994
      vertex 2.2 0.424999 0.0999994
    endloop
  endfacet
  facet normal 0 0 -1
    outer loop
      vertex 0.599999 2.425 0.0999994
      vertex 2.2 2.9 0.0999994
      vertex 2.2 2.425 0.0999994
    endloop
  endfacet
  facet normal -0 0 -1
    outer loop
      vertex 2.2 2.9 0.0999994
      vertex 0.599999 2.425 0.0999994
      vertex 0.599999 2.9 0.0999994
    endloop
  endfacet
  facet normal 0 0 -1
    outer loop
      vertex 0.599999 0 0.0999994
      vertex 2.2 0.424999 0.0999994
      vertex 2.2 0 0.0999994
    endloop
  endfacet
  facet normal -0 0 -1
    outer loop
      vertex 2.2 0.424999 0.0999994
      vertex 0.599999 0 0.0999994
      vertex 0.599999 0.424999 0.0999994
    endloop
  endfacet
  facet normal 0 0 -1
    outer loop
      vertex 0.599999 0.825 0.0999994
      vertex 2.2 1.225 0.0999994
      vertex 2.2 0.825 0.0999994
    endloop
  endfacet
  facet normal -0 0 -1
    outer loop
      vertex 2.2 1.225 0.0999994
      vertex 0.599999 0.825 0.0999994
      vertex 0.599999 1.225 0.0999994
    endloop
  endfacet
  facet normal 0 0 -1
    outer loop
      vertex 0.599999 1.625 0.0999994
      vertex 2.2 2.025 0.0999994
      vertex 2.2 1.625 0.0999994
    endloop
  endfacet
  facet normal -0 0 -1
    outer loop
      vertex 2.2 2.025 0.0999994
      vertex 0.599999 1.625 0.0999994
      vertex 0.599999 2.025 0.0999994
    endloop
  endfacet
  facet normal 0 -1 0
    outer loop
      vertex 0.599999 0 0.0999994
      vertex 2.2 0 1.55
      vertex 0.599999 0 1.55
    endloop
  endfacet
  facet normal 0 -1 -0
    outer loop
      vertex 2.2 0 1.55
      vertex 0.599999 0 0.0999994
      vertex 2.2 0 0.0999994
    endloop
  endfacet
  facet normal -1 0 0
    outer loop
      vertex 0 0.424999 0
      vertex 0 0.825 0.0999994
      vertex 0 0.825 0
    endloop
  endfacet
  facet normal -1 -0 0
    outer loop
      vertex 0 0.825 0.0999994
      vertex 0 0.424999 0
      vertex 0 0.424999 0.0999994
    endloop
  endfacet
  facet normal 1 -0 0
    outer loop
      vertex 2.8 0.424999 0.0999994
      vertex 2.8 0.825 0
      vertex 2.8 0.825 0.0999994
    endloop
  endfacet
  facet normal 1 0 0
    outer loop
      vertex 2.8 0.825 0
      vertex 2.8 0.424999 0.0999994
      vertex 2.8 0.424999 0
    endloop
  endfacet
  facet normal 0 1 -0
    outer loop
      vertex 2.8 0.825 0
      vertex 2.2 0.825 0.0999994
      vertex 2.8 0.825 0.0999994
    endloop
  endfacet
  facet normal 0 1 0
    outer loop
      vertex 2.2 0.825 0.0999994
      vertex 2.8 0.825 0
      vertex 0.599999 0.825 0.0999994
    endloop
  endfacet
  facet normal 0 1 0
    outer loop
      vertex 0 0.825 0
      vertex 0.599999 0.825 0.0999994
      vertex 2.8 0.825 0
    endloop
  endfacet
  facet normal 0 1 0
    outer loop
      vertex 0.599999 0.825 0.0999994
      vertex 0 0.825 0
      vertex 0 0.825 0.0999994
    endloop
  endfacet
  facet normal 0 0 -1
    outer loop
      vertex 0 0.424999 0
      vertex 2.8 0.825 0
      vertex 2.8 0.424999 0
    endloop
  endfacet
  facet normal -0 0 -1
    outer loop
      vertex 2.8 0.825 0
      vertex 0 0.424999 0
      vertex 0 0.825 0
    endloop
  endfacet
  facet normal 0 -1 0
    outer loop
      vertex 0 0.424999 0
      vertex 0.599999 0.424999 0.0999994
      vertex 0 0.424999 0.0999994
    endloop
  endfacet
  facet normal 0 -1 -0
    outer loop
      vertex 0.599999 0.424999 0.0999994
      vertex 0 0.424999 0
      vertex 2.2 0.424999 0.0999994
    endloop
  endfacet
  facet normal 0 -1 0
    outer loop
      vertex 2.8 0.424999 0
      vertex 2.2 0.424999 0.0999994
      vertex 0 0.424999 0
    endloop
  endfacet
  facet normal 0 -1 0
    outer loop
      vertex 2.2 0.424999 0.0999994
      vertex 2.8 0.424999 0
      vertex 2.8 0.424999 0.0999994
    endloop
  endfacet
  facet normal -1 0 0
    outer loop
      vertex 0 1.225 0
      vertex 0 1.625 0.0999994
      vertex 0 1.625 0
    endloop
  endfacet
  facet normal -1 -0 0
    outer loop
      vertex 0 1.625 0.0999994
      vertex 0 1.225 0
      vertex 0 1.225 0.0999994
    endloop
  endfacet
  facet normal 1 -0 0
    outer loop
      vertex 2.8 1.225 0.0999994
      vertex 2.8 1.625 0
      vertex 2.8 1.625 0.0999994
    endloop
  endfacet
  facet normal 1 0 0
    outer loop
      vertex 2.8 1.625 0
      vertex 2.8 1.225 0.0999994
      vertex 2.8 1.225 0
    endloop
  endfacet
  facet normal 0 1 -0
    outer loop
      vertex 2.8 1.625 0
      vertex 2.2 1.625 0.0999994
      vertex 2.8 1.625 0.0999994
    endloop
  endfacet
  facet normal 0 1 0
    outer loop
      vertex 2.2 1.625 0.0999994
      vertex 2.8 1.625 0
      vertex 0.599999 1.625 0.0999994
    endloop
  endfacet
  facet normal 0 1 0
    outer loop
      vertex 0 1.625 0
      vertex 0.599999 1.625 0.0999994
      vertex 2.8 1.625 0
    endloop
  endfacet
  facet normal 0 1 0
    outer loop
      vertex 0.599999 1.625 0.0999994
      vertex 0 1.625 0
      vertex 0 1.625 0.0999994
    endloop
  endfacet
  facet normal 0 0 -1
    outer loop
      vertex 0 1.225 0
      vertex 2.8 1.625 0
      vertex 2.8 1.225 0
    endloop
  endfacet
  facet normal -0 0 -1
    outer loop
      vertex 2.8 1.625 0
      vertex 0 1.225 0
      vertex 0 1.625 0
    endloop
  endfacet
  facet normal 0 -1 0
    outer loop
      vertex 0 1.225 0
      vertex 0.599999 1.225 0.0999994
      vertex 0 1.225 0.0999994
    endloop
  endfacet
  facet normal 0 -1 -0
    outer loop
      vertex 0.599999 1.225 0.0999994
      vertex 0 1.225 0
      vertex 2.2 1.225 0.0999994
    endloop
  endfacet
  facet normal 0 -1 0
    outer loop
      vertex 2.8 1.225 0
      vertex 2.2 1.225 0.0999994
      vertex 0 1.225 0
    endloop
  endfacet
  facet normal 0 -1 0
    outer loop
      vertex 2.2 1.225 0.0999994
      vertex 2.8 1.225 0
      vertex 2.8 1.225 0.0999994
    endloop
  endfacet
  facet normal -1 0 0
    outer loop
      vertex 0 2.025 0
      vertex 0 2.425 0.0999994
      vertex 0 2.425 0
    endloop
  endfacet
  facet normal -1 -0 0
    outer loop
      vertex 0 2.425 0.0999994
      vertex 0 2.025 0
      vertex 0 2.025 0.0999994
    endloop
  endfacet
  facet normal 1 -0 0
    outer loop
      vertex 2.8 2.025 0.0999994
      vertex 2.8 2.425 0
      vertex 2.8 2.425 0.0999994
    endloop
  endfacet
  facet normal 1 0 0
    outer loop
      vertex 2.8 2.425 0
      vertex 2.8 2.025 0.0999994
      vertex 2.8 2.025 0
    endloop
  endfacet
  facet normal 0 0 -1
    outer loop
      vertex 0 2.025 0
      vertex 2.8 2.425 0
      vertex 2.8 2.025 0
    endloop
  endfacet
  facet normal -0 0 -1
    outer loop
      vertex 2.8 2.425 0
      vertex 0 2.025 0
      vertex 0 2.425 0
    endloop
  endfacet
  facet normal 0 -1 0
    outer loop
      vertex 0 2.025 0
      vertex 0.599999 2.025 0.0999994
      vertex 0 2.025 0.0999994
    endloop
  endfacet
  facet normal 0 -1 -0
    outer loop
      vertex 0.599999 2.025 0.0999994
      vertex 0 2.025 0
      vertex 2.2 2.025 0.0999994
    endloop
  endfacet
  facet normal 0 -1 0
    outer loop
      vertex 2.8 2.025 0
      vertex 2.2 2.025 0.0999994
      vertex 0 2.025 0
    endloop
  endfacet
  facet normal 0 -1 0
    outer loop
      vertex 2.2 2.025 0.0999994
      vertex 2.8 2.025 0
      vertex 2.8 2.025 0.0999994
    endloop
  endfacet
  facet normal 0 1 -0
    outer loop
      vertex 2.8 2.425 0
      vertex 2.2 2.425 0.0999994
      vertex 2.8 2.425 0.0999994
    endloop
  endfacet
  facet normal 0 1 0
    outer loop
      vertex 2.2 2.425 0.0999994
      vertex 2.8 2.425 0
      vertex 0.599999 2.425 0.0999994
    endloop
  endfacet
  facet normal 0 1 0
    outer loop
      vertex 0 2.425 0
      vertex 0.599999 2.425 0.0999994
      vertex 2.8 2.425 0
    endloop
  endfacet
  facet normal 0 1 0
    outer loop
      vertex 0.599999 2.425 0.0999994
      vertex 0 2.425 0
      vertex 0 2.425 0.0999994
    endloop
  endfacet
endsolid OpenSCAD_Model
