solid OpenSCAD_Model
  facet normal -1 0 0
    outer loop
      vertex 0 0 0
      vertex 0 31 3.8
      vertex 0 31 0
    endloop
  endfacet
  facet normal -1 -0 0
    outer loop
      vertex 0 31 3.8
      vertex 0 0 0
      vertex 0 0 3.8
    endloop
  endfacet
  facet normal -0 0 1
    outer loop
      vertex 0 31 3.8
      vertex 11.5 0 3.8
      vertex 11.5 31 3.8
    endloop
  endfacet
  facet normal 0 0 1
    outer loop
      vertex 11.5 0 3.8
      vertex 0 31 3.8
      vertex 0 0 3.8
    endloop
  endfacet
  facet normal 1 -0 0
    outer loop
      vertex 11.5 0 3.8
      vertex 11.5 31 0
      vertex 11.5 31 3.8
    endloop
  endfacet
  facet normal 1 0 0
    outer loop
      vertex 11.5 31 0
      vertex 11.5 0 3.8
      vertex 11.5 0 0
    endloop
  endfacet
  facet normal 0 1 -0
    outer loop
      vertex 11.5 31 0
      vertex 0 31 3.8
      vertex 11.5 31 3.8
    endloop
  endfacet
  facet normal 0 1 0
    outer loop
      vertex 0 31 3.8
      vertex 11.5 31 0
      vertex 0 31 0
    endloop
  endfacet
  facet normal 0 0 -1
    outer loop
      vertex 0 0 0
      vertex 11.5 31 0
      vertex 11.5 0 0
    endloop
  endfacet
  facet normal -0 0 -1
    outer loop
      vertex 11.5 31 0
      vertex 0 0 0
      vertex 0 31 0
    endloop
  endfacet
  facet normal 0 -1 0
    outer loop
      vertex 5.75 0 1.9
      vertex 6.75 0 2.9
      vertex 5.75 0 2.9
    endloop
  endfacet
  facet normal 0 -1 -0
    outer loop
      vertex 6.75 0 2.9
      vertex 5.75 0 1.9
      vertex 6.75 0 1.9
    endloop
  endfacet
  facet normal 0 -1 0
    outer loop
      vertex 5.75 0 2.9
      vertex 0 0 3.8
      vertex 4.75 0 2.9
    endloop
  endfacet
  facet normal 0 -1 0
    outer loop
      vertex 0 0 3.8
      vertex 4.75 0 1.9
      vertex 4.75 0 2.9
    endloop
  endfacet
  facet normal 0 -1 0
    outer loop
      vertex 0 0 0
      vertex 5.75 0 1.9
      vertex 4.75 0 1.9
    endloop
  endfacet
  facet normal 0 -1 0
    outer loop
      vertex 5.75 0 1.9
      vertex 11.5 0 0
      vertex 6.75 0 1.9
    endloop
  endfacet
  facet normal 0 -1 -0
    outer loop
      vertex 5.75 0 1.9
      vertex 0 0 0
      vertex 11.5 0 0
    endloop
  endfacet
  facet normal 0 -1 0
    outer loop
      vertex 0 0 0
      vertex 4.75 0 1.9
      vertex 0 0 3.8
    endloop
  endfacet
  facet normal 0 -1 0
    outer loop
      vertex 0 0 3.8
      vertex 5.75 0 2.9
      vertex 11.5 0 3.8
    endloop
  endfacet
  facet normal 0 -1 0
    outer loop
      vertex 6.75 0 2.9
      vertex 11.5 0 3.8
      vertex 5.75 0 2.9
    endloop
  endfacet
  facet normal 0 -1 0
    outer loop
      vertex 7.75 0 2.9
      vertex 11.5 0 3.8
      vertex 6.75 0 2.9
    endloop
  endfacet
  facet normal 0 -1 0
    outer loop
      vertex 7.75 0 1.9
      vertex 11.5 0 3.8
      vertex 7.75 0 2.9
    endloop
  endfacet
  facet normal 0 -1 0
    outer loop
      vertex 7.75 0 1.9
      vertex 11.5 0 0
      vertex 11.5 0 3.8
    endloop
  endfacet
  facet normal 0 -1 0
    outer loop
      vertex 6.75 0 1.9
      vertex 11.5 0 0
      vertex 7.75 0 1.9
    endloop
  endfacet
  facet normal -1 0 0
    outer loop
      vertex 4.75 -1 1.9
      vertex 4.75 0 2.9
      vertex 4.75 0 1.9
    endloop
  endfacet
  facet normal -1 -0 0
    outer loop
      vertex 4.75 0 2.9
      vertex 4.75 -1 1.9
      vertex 4.75 -1 2.9
    endloop
  endfacet
  facet normal -0 0 1
    outer loop
      vertex 4.75 0 2.9
      vertex 5.75 -1 2.9
      vertex 5.75 0 2.9
    endloop
  endfacet
  facet normal 0 0 1
    outer loop
      vertex 5.75 -1 2.9
      vertex 4.75 0 2.9
      vertex 4.75 -1 2.9
    endloop
  endfacet
  facet normal 1 -0 0
    outer loop
      vertex 5.75 -1 2.9
      vertex 5.75 0 1.9
      vertex 5.75 0 2.9
    endloop
  endfacet
  facet normal 1 0 0
    outer loop
      vertex 5.75 0 1.9
      vertex 5.75 -1 2.9
      vertex 5.75 -1 1.9
    endloop
  endfacet
  facet normal 0 0 -1
    outer loop
      vertex 4.75 -1 1.9
      vertex 5.75 0 1.9
      vertex 5.75 -1 1.9
    endloop
  endfacet
  facet normal -0 0 -1
    outer loop
      vertex 5.75 0 1.9
      vertex 4.75 -1 1.9
      vertex 4.75 0 1.9
    endloop
  endfacet
  facet normal 0 -1 0
    outer loop
      vertex 4.75 -1 1.9
      vertex 5.75 -1 2.9
      vertex 4.75 -1 2.9
    endloop
  endfacet
  facet normal 0 -1 -0
    outer loop
      vertex 5.75 -1 2.9
      vertex 4.75 -1 1.9
      vertex 5.75 -1 1.9
    endloop
  endfacet
  facet normal -1 0 0
    outer loop
      vertex 6.75 -1 1.9
      vertex 6.75 0 2.9
      vertex 6.75 0 1.9
    endloop
  endfacet
  facet normal -1 -0 0
    outer loop
      vertex 6.75 0 2.9
      vertex 6.75 -1 1.9
      vertex 6.75 -1 2.9
    endloop
  endfacet
  facet normal -0 0 1
    outer loop
      vertex 6.75 0 2.9
      vertex 7.75 -1 2.9
      vertex 7.75 0 2.9
    endloop
  endfacet
  facet normal 0 0 1
    outer loop
      vertex 7.75 -1 2.9
      vertex 6.75 0 2.9
      vertex 6.75 -1 2.9
    endloop
  endfacet
  facet normal 1 -0 0
    outer loop
      vertex 7.75 -1 2.9
      vertex 7.75 0 1.9
      vertex 7.75 0 2.9
    endloop
  endfacet
  facet normal 1 0 0
    outer loop
      vertex 7.75 0 1.9
      vertex 7.75 -1 2.9
      vertex 7.75 -1 1.9
    endloop
  endfacet
  facet normal 0 0 -1
    outer loop
      vertex 6.75 -1 1.9
      vertex 7.75 0 1.9
      vertex 7.75 -1 1.9
    endloop
  endfacet
  facet normal -0 0 -1
    outer loop
      vertex 7.75 0 1.9
      vertex 6.75 -1 1.9
      vertex 6.75 0 1.9
    endloop
  endfacet
  facet normal 0 -1 0
    outer loop
      vertex 6.75 -1 1.9
      vertex 7.75 -1 2.9
      vertex 6.75 -1 2.9
    endloop
  endfacet
  facet normal 0 -1 -0
    outer loop
      vertex 7.75 -1 2.9
      vertex 6.75 -1 1.9
      vertex 7.75 -1 1.9
    endloop
  endfacet
endsolid OpenSCAD_Model
