solid OpenSCAD_Model
  facet normal -1 0 0
    outer loop
      vertex 1.7 7.425 0.299999
      vertex 1.7 9.1 3.8
      vertex 1.7 9.1 0.299999
    endloop
  endfacet
  facet normal -1 0 0
    outer loop
      vertex 1.7 6.825 0.299999
      vertex 1.7 9.1 3.8
      vertex 1.7 7.425 0.299999
    endloop
  endfacet
  facet normal -1 0 0
    outer loop
      vertex 1.7 4.925 0.299999
      vertex 1.7 9.1 3.8
      vertex 1.7 6.825 0.299999
    endloop
  endfacet
  facet normal -1 0 0
    outer loop
      vertex 1.7 4.325 0.299999
      vertex 1.7 9.1 3.8
      vertex 1.7 4.925 0.299999
    endloop
  endfacet
  facet normal -1 0 0
    outer loop
      vertex 1.7 0 3.8
      vertex 1.7 4.325 0.299999
      vertex 1.7 2.425 0.299999
    endloop
  endfacet
  facet normal -1 0 0
    outer loop
      vertex 1.7 0 3.8
      vertex 1.7 2.425 0.299999
      vertex 1.7 1.825 0.299999
    endloop
  endfacet
  facet normal -1 0 0
    outer loop
      vertex 1.7 0 3.8
      vertex 1.7 1.825 0.299999
      vertex 1.7 0 0.299999
    endloop
  endfacet
  facet normal -1 0 0
    outer loop
      vertex 1.7 4.325 0.299999
      vertex 1.7 0 3.8
      vertex 1.7 9.1 3.8
    endloop
  endfacet
  facet normal 0 0 1
    outer loop
      vertex 5.2 9.1 3.8
      vertex 4.2 6.3 3.8
      vertex 5.2 0 3.8
    endloop
  endfacet
  facet normal 0 0 1
    outer loop
      vertex 5.2 9.1 3.8
      vertex 2.7 6.3 3.8
      vertex 4.2 6.3 3.8
    endloop
  endfacet
  facet normal 0 0 1
    outer loop
      vertex 2.7 6.3 3.8
      vertex 1.7 9.1 3.8
      vertex 2.7 2.8 3.8
    endloop
  endfacet
  facet normal -0 0 1
    outer loop
      vertex 1.7 9.1 3.8
      vertex 2.7 6.3 3.8
      vertex 5.2 9.1 3.8
    endloop
  endfacet
  facet normal -0 0 1
    outer loop
      vertex 4.2 2.8 3.8
      vertex 5.2 0 3.8
      vertex 4.2 6.3 3.8
    endloop
  endfacet
  facet normal -0 0 1
    outer loop
      vertex 2.7 2.8 3.8
      vertex 5.2 0 3.8
      vertex 4.2 2.8 3.8
    endloop
  endfacet
  facet normal 0 0 1
    outer loop
      vertex 2.7 2.8 3.8
      vertex 1.7 0 3.8
      vertex 5.2 0 3.8
    endloop
  endfacet
  facet normal 0 0 1
    outer loop
      vertex 1.7 0 3.8
      vertex 2.7 2.8 3.8
      vertex 1.7 9.1 3.8
    endloop
  endfacet
  facet normal 1 0 0
    outer loop
      vertex 5.2 9.1 3.8
      vertex 5.2 7.425 0.299999
      vertex 5.2 9.1 0.299999
    endloop
  endfacet
  facet normal 1 0 0
    outer loop
      vertex 5.2 9.1 3.8
      vertex 5.2 6.825 0.299999
      vertex 5.2 7.425 0.299999
    endloop
  endfacet
  facet normal 1 0 0
    outer loop
      vertex 5.2 9.1 3.8
      vertex 5.2 4.925 0.299999
      vertex 5.2 6.825 0.299999
    endloop
  endfacet
  facet normal 1 0 0
    outer loop
      vertex 5.2 9.1 3.8
      vertex 5.2 4.325 0.299999
      vertex 5.2 4.925 0.299999
    endloop
  endfacet
  facet normal 1 -0 0
    outer loop
      vertex 5.2 0 3.8
      vertex 5.2 4.325 0.299999
      vertex 5.2 9.1 3.8
    endloop
  endfacet
  facet normal 1 0 0
    outer loop
      vertex 5.2 4.325 0.299999
      vertex 5.2 0 3.8
      vertex 5.2 2.425 0.299999
    endloop
  endfacet
  facet normal 1 0 0
    outer loop
      vertex 5.2 2.425 0.299999
      vertex 5.2 0 3.8
      vertex 5.2 1.825 0.299999
    endloop
  endfacet
  facet normal 1 0 0
    outer loop
      vertex 5.2 1.825 0.299999
      vertex 5.2 0 3.8
      vertex 5.2 0 0.299999
    endloop
  endfacet
  facet normal 0 1 -0
    outer loop
      vertex 5.2 9.1 0.299999
      vertex 1.7 9.1 3.8
      vertex 5.2 9.1 3.8
    endloop
  endfacet
  facet normal 0 1 0
    outer loop
      vertex 1.7 9.1 3.8
      vertex 5.2 9.1 0.299999
      vertex 1.7 9.1 0.299999
    endloop
  endfacet
  facet normal -0 0 1
    outer loop
      vertex 0 7.425 0.299999
      vertex 1.7 6.825 0.299999
      vertex 1.7 7.425 0.299999
    endloop
  endfacet
  facet normal 0 0 1
    outer loop
      vertex 1.7 6.825 0.299999
      vertex 0 7.425 0.299999
      vertex 0 6.825 0.299999
    endloop
  endfacet
  facet normal -0 0 1
    outer loop
      vertex 5.2 7.425 0.299999
      vertex 6.9 6.825 0.299999
      vertex 6.9 7.425 0.299999
    endloop
  endfacet
  facet normal 0 0 1
    outer loop
      vertex 6.9 6.825 0.299999
      vertex 5.2 7.425 0.299999
      vertex 5.2 6.825 0.299999
    endloop
  endfacet
  facet normal -0 0 1
    outer loop
      vertex 0 4.925 0.299999
      vertex 1.7 4.325 0.299999
      vertex 1.7 4.925 0.299999
    endloop
  endfacet
  facet normal 0 0 1
    outer loop
      vertex 1.7 4.325 0.299999
      vertex 0 4.925 0.299999
      vertex 0 4.325 0.299999
    endloop
  endfacet
  facet normal -0 0 1
    outer loop
      vertex 5.2 4.925 0.299999
      vertex 6.9 4.325 0.299999
      vertex 6.9 4.925 0.299999
    endloop
  endfacet
  facet normal 0 0 1
    outer loop
      vertex 6.9 4.325 0.299999
      vertex 5.2 4.925 0.299999
      vertex 5.2 4.325 0.299999
    endloop
  endfacet
  facet normal -0 0 1
    outer loop
      vertex 0 2.425 0.299999
      vertex 1.7 1.825 0.299999
      vertex 1.7 2.425 0.299999
    endloop
  endfacet
  facet normal 0 0 1
    outer loop
      vertex 1.7 1.825 0.299999
      vertex 0 2.425 0.299999
      vertex 0 1.825 0.299999
    endloop
  endfacet
  facet normal -0 0 1
    outer loop
      vertex 5.2 2.425 0.299999
      vertex 6.9 1.825 0.299999
      vertex 6.9 2.425 0.299999
    endloop
  endfacet
  facet normal 0 0 1
    outer loop
      vertex 6.9 1.825 0.299999
      vertex 5.2 2.425 0.299999
      vertex 5.2 1.825 0.299999
    endloop
  endfacet
  facet normal 0 0 -1
    outer loop
      vertex 1.7 7.425 0.299999
      vertex 5.2 9.1 0.299999
      vertex 5.2 7.425 0.299999
    endloop
  endfacet
  facet normal -0 0 -1
    outer loop
      vertex 5.2 9.1 0.299999
      vertex 1.7 7.425 0.299999
      vertex 1.7 9.1 0.299999
    endloop
  endfacet
  facet normal 0 0 -1
    outer loop
      vertex 1.7 0 0.299999
      vertex 5.2 1.825 0.299999
      vertex 5.2 0 0.299999
    endloop
  endfacet
  facet normal -0 0 -1
    outer loop
      vertex 5.2 1.825 0.299999
      vertex 1.7 0 0.299999
      vertex 1.7 1.825 0.299999
    endloop
  endfacet
  facet normal 0 0 -1
    outer loop
      vertex 1.7 2.425 0.299999
      vertex 5.2 4.325 0.299999
      vertex 5.2 2.425 0.299999
    endloop
  endfacet
  facet normal -0 0 -1
    outer loop
      vertex 5.2 4.325 0.299999
      vertex 1.7 2.425 0.299999
      vertex 1.7 4.325 0.299999
    endloop
  endfacet
  facet normal 0 0 -1
    outer loop
      vertex 1.7 4.925 0.299999
      vertex 5.2 6.825 0.299999
      vertex 5.2 4.925 0.299999
    endloop
  endfacet
  facet normal -0 0 -1
    outer loop
      vertex 5.2 6.825 0.299999
      vertex 1.7 4.925 0.299999
      vertex 1.7 6.825 0.299999
    endloop
  endfacet
  facet normal 0 -1 0
    outer loop
      vertex 1.7 0 0.299999
      vertex 5.2 0 3.8
      vertex 1.7 0 3.8
    endloop
  endfacet
  facet normal 0 -1 -0
    outer loop
      vertex 5.2 0 3.8
      vertex 1.7 0 0.299999
      vertex 5.2 0 0.299999
    endloop
  endfacet
  facet normal -1 0 0
    outer loop
      vertex 0 1.825 0
      vertex 0 2.425 0.299999
      vertex 0 2.425 0
    endloop
  endfacet
  facet normal -1 -0 0
    outer loop
      vertex 0 2.425 0.299999
      vertex 0 1.825 0
      vertex 0 1.825 0.299999
    endloop
  endfacet
  facet normal 1 -0 0
    outer loop
      vertex 6.9 1.825 0.299999
      vertex 6.9 2.425 0
      vertex 6.9 2.425 0.299999
    endloop
  endfacet
  facet normal 1 0 0
    outer loop
      vertex 6.9 2.425 0
      vertex 6.9 1.825 0.299999
      vertex 6.9 1.825 0
    endloop
  endfacet
  facet normal 0 0 -1
    outer loop
      vertex 0 1.825 0
      vertex 6.9 2.425 0
      vertex 6.9 1.825 0
    endloop
  endfacet
  facet normal -0 0 -1
    outer loop
      vertex 6.9 2.425 0
      vertex 0 1.825 0
      vertex 0 2.425 0
    endloop
  endfacet
  facet normal 0 -1 0
    outer loop
      vertex 0 1.825 0
      vertex 1.7 1.825 0.299999
      vertex 0 1.825 0.299999
    endloop
  endfacet
  facet normal 0 -1 -0
    outer loop
      vertex 1.7 1.825 0.299999
      vertex 0 1.825 0
      vertex 5.2 1.825 0.299999
    endloop
  endfacet
  facet normal 0 -1 0
    outer loop
      vertex 6.9 1.825 0
      vertex 5.2 1.825 0.299999
      vertex 0 1.825 0
    endloop
  endfacet
  facet normal 0 -1 0
    outer loop
      vertex 5.2 1.825 0.299999
      vertex 6.9 1.825 0
      vertex 6.9 1.825 0.299999
    endloop
  endfacet
  facet normal 0 1 -0
    outer loop
      vertex 6.9 2.425 0
      vertex 5.2 2.425 0.299999
      vertex 6.9 2.425 0.299999
    endloop
  endfacet
  facet normal 0 1 0
    outer loop
      vertex 5.2 2.425 0.299999
      vertex 6.9 2.425 0
      vertex 1.7 2.425 0.299999
    endloop
  endfacet
  facet normal 0 1 0
    outer loop
      vertex 0 2.425 0
      vertex 1.7 2.425 0.299999
      vertex 6.9 2.425 0
    endloop
  endfacet
  facet normal 0 1 0
    outer loop
      vertex 1.7 2.425 0.299999
      vertex 0 2.425 0
      vertex 0 2.425 0.299999
    endloop
  endfacet
  facet normal -1 0 0
    outer loop
      vertex 0 4.325 0
      vertex 0 4.925 0.299999
      vertex 0 4.925 0
    endloop
  endfacet
  facet normal -1 -0 0
    outer loop
      vertex 0 4.925 0.299999
      vertex 0 4.325 0
      vertex 0 4.325 0.299999
    endloop
  endfacet
  facet normal 1 -0 0
    outer loop
      vertex 6.9 4.325 0.299999
      vertex 6.9 4.925 0
      vertex 6.9 4.925 0.299999
    endloop
  endfacet
  facet normal 1 0 0
    outer loop
      vertex 6.9 4.925 0
      vertex 6.9 4.325 0.299999
      vertex 6.9 4.325 0
    endloop
  endfacet
  facet normal 0 0 -1
    outer loop
      vertex 0 4.325 0
      vertex 6.9 4.925 0
      vertex 6.9 4.325 0
    endloop
  endfacet
  facet normal -0 0 -1
    outer loop
      vertex 6.9 4.925 0
      vertex 0 4.325 0
      vertex 0 4.925 0
    endloop
  endfacet
  facet normal 0 -1 0
    outer loop
      vertex 0 4.325 0
      vertex 1.7 4.325 0.299999
      vertex 0 4.325 0.299999
    endloop
  endfacet
  facet normal 0 -1 -0
    outer loop
      vertex 1.7 4.325 0.299999
      vertex 0 4.325 0
      vertex 5.2 4.325 0.299999
    endloop
  endfacet
  facet normal 0 -1 0
    outer loop
      vertex 6.9 4.325 0
      vertex 5.2 4.325 0.299999
      vertex 0 4.325 0
    endloop
  endfacet
  facet normal 0 -1 0
    outer loop
      vertex 5.2 4.325 0.299999
      vertex 6.9 4.325 0
      vertex 6.9 4.325 0.299999
    endloop
  endfacet
  facet normal 0 1 -0
    outer loop
      vertex 6.9 4.925 0
      vertex 5.2 4.925 0.299999
      vertex 6.9 4.925 0.299999
    endloop
  endfacet
  facet normal 0 1 0
    outer loop
      vertex 5.2 4.925 0.299999
      vertex 6.9 4.925 0
      vertex 1.7 4.925 0.299999
    endloop
  endfacet
  facet normal 0 1 0
    outer loop
      vertex 0 4.925 0
      vertex 1.7 4.925 0.299999
      vertex 6.9 4.925 0
    endloop
  endfacet
  facet normal 0 1 0
    outer loop
      vertex 1.7 4.925 0.299999
      vertex 0 4.925 0
      vertex 0 4.925 0.299999
    endloop
  endfacet
  facet normal -1 0 0
    outer loop
      vertex 0 6.825 0
      vertex 0 7.425 0.299999
      vertex 0 7.425 0
    endloop
  endfacet
  facet normal -1 -0 0
    outer loop
      vertex 0 7.425 0.299999
      vertex 0 6.825 0
      vertex 0 6.825 0.299999
    endloop
  endfacet
  facet normal 1 -0 0
    outer loop
      vertex 6.9 6.825 0.299999
      vertex 6.9 7.425 0
      vertex 6.9 7.425 0.299999
    endloop
  endfacet
  facet normal 1 0 0
    outer loop
      vertex 6.9 7.425 0
      vertex 6.9 6.825 0.299999
      vertex 6.9 6.825 0
    endloop
  endfacet
  facet normal 0 1 -0
    outer loop
      vertex 6.9 7.425 0
      vertex 5.2 7.425 0.299999
      vertex 6.9 7.425 0.299999
    endloop
  endfacet
  facet normal 0 1 0
    outer loop
      vertex 5.2 7.425 0.299999
      vertex 6.9 7.425 0
      vertex 1.7 7.425 0.299999
    endloop
  endfacet
  facet normal 0 1 0
    outer loop
      vertex 0 7.425 0
      vertex 1.7 7.425 0.299999
      vertex 6.9 7.425 0
    endloop
  endfacet
  facet normal 0 1 0
    outer loop
      vertex 1.7 7.425 0.299999
      vertex 0 7.425 0
      vertex 0 7.425 0.299999
    endloop
  endfacet
  facet normal 0 0 -1
    outer loop
      vertex 0 6.825 0
      vertex 6.9 7.425 0
      vertex 6.9 6.825 0
    endloop
  endfacet
  facet normal -0 0 -1
    outer loop
      vertex 6.9 7.425 0
      vertex 0 6.825 0
      vertex 0 7.425 0
    endloop
  endfacet
  facet normal 0 -1 0
    outer loop
      vertex 0 6.825 0
      vertex 1.7 6.825 0.299999
      vertex 0 6.825 0.299999
    endloop
  endfacet
  facet normal 0 -1 -0
    outer loop
      vertex 1.7 6.825 0.299999
      vertex 0 6.825 0
      vertex 5.2 6.825 0.299999
    endloop
  endfacet
  facet normal 0 -1 0
    outer loop
      vertex 6.9 6.825 0
      vertex 5.2 6.825 0.299999
      vertex 0 6.825 0
    endloop
  endfacet
  facet normal 0 -1 0
    outer loop
      vertex 5.2 6.825 0.299999
      vertex 6.9 6.825 0
      vertex 6.9 6.825 0.299999
    endloop
  endfacet
  facet normal -1 0 0
    outer loop
      vertex 2.7 2.8 3.8
      vertex 2.7 6.3 5.8
      vertex 2.7 6.3 3.8
    endloop
  endfacet
  facet normal -1 -0 0
    outer loop
      vertex 2.7 6.3 5.8
      vertex 2.7 2.8 3.8
      vertex 2.7 2.8 5.8
    endloop
  endfacet
  facet normal -0 0 1
    outer loop
      vertex 2.7 6.3 5.8
      vertex 4.2 2.8 5.8
      vertex 4.2 6.3 5.8
    endloop
  endfacet
  facet normal 0 0 1
    outer loop
      vertex 4.2 2.8 5.8
      vertex 2.7 6.3 5.8
      vertex 2.7 2.8 5.8
    endloop
  endfacet
  facet normal 1 -0 0
    outer loop
      vertex 4.2 2.8 5.8
      vertex 4.2 6.3 3.8
      vertex 4.2 6.3 5.8
    endloop
  endfacet
  facet normal 1 0 0
    outer loop
      vertex 4.2 6.3 3.8
      vertex 4.2 2.8 5.8
      vertex 4.2 2.8 3.8
    endloop
  endfacet
  facet normal 0 -1 0
    outer loop
      vertex 2.7 2.8 3.8
      vertex 4.2 2.8 5.8
      vertex 2.7 2.8 5.8
    endloop
  endfacet
  facet normal 0 -1 -0
    outer loop
      vertex 4.2 2.8 5.8
      vertex 2.7 2.8 3.8
      vertex 4.2 2.8 3.8
    endloop
  endfacet
  facet normal 0 1 -0
    outer loop
      vertex 4.2 6.3 3.8
      vertex 2.7 6.3 5.8
      vertex 4.2 6.3 5.8
    endloop
  endfacet
  facet normal 0 1 0
    outer loop
      vertex 2.7 6.3 5.8
      vertex 4.2 6.3 3.8
      vertex 2.7 6.3 3.8
    endloop
  endfacet
endsolid OpenSCAD_Model
