solid OpenSCAD_Model
  facet normal -0 0 1
    outer loop
      vertex 0 5.74 3
      vertex 8 0 3
      vertex 8 5.74 3
    endloop
  endfacet
  facet normal 0 0 1
    outer loop
      vertex 8 0 3
      vertex 0 5.74 3
      vertex 0 0 3
    endloop
  endfacet
  facet normal 0 0 -1
    outer loop
      vertex 0 0 0
      vertex 8 5.74 0
      vertex 8 0 0
    endloop
  endfacet
  facet normal -0 0 -1
    outer loop
      vertex 8 5.74 0
      vertex 0 0 0
      vertex 0 5.74 0
    endloop
  endfacet
  facet normal 0 -1 0
    outer loop
      vertex 0 0 0
      vertex 8 0 3
      vertex 0 0 3
    endloop
  endfacet
  facet normal 0 -1 -0
    outer loop
      vertex 8 0 3
      vertex 0 0 0
      vertex 8 0 0
    endloop
  endfacet
  facet normal 1 -0 0
    outer loop
      vertex 8 0 3
      vertex 8 5.74 0
      vertex 8 5.74 3
    endloop
  endfacet
  facet normal 1 0 0
    outer loop
      vertex 8 5.74 0
      vertex 8 0 3
      vertex 8 0 0
    endloop
  endfacet
  facet normal 0 1 -0
    outer loop
      vertex 8 5.74 0
      vertex 0 5.74 3
      vertex 8 5.74 3
    endloop
  endfacet
  facet normal 0 1 0
    outer loop
      vertex 0 5.74 3
      vertex 8 5.74 0
      vertex 0 5.74 0
    endloop
  endfacet
  facet normal -1 0 0
    outer loop
      vertex 0 0 0
      vertex 0 5.74 3
      vertex 0 5.74 0
    endloop
  endfacet
  facet normal -1 -0 0
    outer loop
      vertex 0 5.74 3
      vertex 0 0 0
      vertex 0 0 3
    endloop
  endfacet
endsolid OpenSCAD_Model
