solid OpenSCAD_Model
  facet normal -1 0 0
    outer loop
      vertex 0 0.4 0
      vertex 0 0.799999 0.2
      vertex 0 0.799999 0
    endloop
  endfacet
  facet normal -1 -0 0
    outer loop
      vertex 0 0.799999 0.2
      vertex 0 0.4 0
      vertex 0 0.4 0.2
    endloop
  endfacet
  facet normal -0 0 1
    outer loop
      vertex 0 0.799999 0.2
      vertex 1.05 0.4 0.2
      vertex 1.05 0.799999 0.2
    endloop
  endfacet
  facet normal 0 0 1
    outer loop
      vertex 1.05 0.4 0.2
      vertex 0 0.799999 0.2
      vertex 0 0.4 0.2
    endloop
  endfacet
  facet normal -0 0 1
    outer loop
      vertex 4.95 0.799999 0.2
      vertex 6 0.4 0.2
      vertex 6 0.799999 0.2
    endloop
  endfacet
  facet normal 0 0 1
    outer loop
      vertex 6 0.4 0.2
      vertex 4.95 0.799999 0.2
      vertex 4.95 0.4 0.2
    endloop
  endfacet
  facet normal 1 -0 0
    outer loop
      vertex 6 0.4 0.2
      vertex 6 0.799999 0
      vertex 6 0.799999 0.2
    endloop
  endfacet
  facet normal 1 0 0
    outer loop
      vertex 6 0.799999 0
      vertex 6 0.4 0.2
      vertex 6 0.4 0
    endloop
  endfacet
  facet normal 0 0 -1
    outer loop
      vertex 0 4.21 0
      vertex 1.05 4.61 0
      vertex 1.05 4.21 0
    endloop
  endfacet
  facet normal -0 0 -1
    outer loop
      vertex 1.05 4.61 0
      vertex 0 4.21 0
      vertex 0 4.61 0
    endloop
  endfacet
  facet normal 0 0 -1
    outer loop
      vertex 0 2.94 0
      vertex 1.05 3.34 0
      vertex 1.05 2.94 0
    endloop
  endfacet
  facet normal -0 0 -1
    outer loop
      vertex 1.05 3.34 0
      vertex 0 2.94 0
      vertex 0 3.34 0
    endloop
  endfacet
  facet normal 0 0 -1
    outer loop
      vertex 0 1.67 0
      vertex 1.05 2.07 0
      vertex 1.05 1.67 0
    endloop
  endfacet
  facet normal -0 0 -1
    outer loop
      vertex 1.05 2.07 0
      vertex 0 1.67 0
      vertex 0 2.07 0
    endloop
  endfacet
  facet normal 0 0 -1
    outer loop
      vertex 0 0.4 0
      vertex 1.05 0.799999 0
      vertex 1.05 0.4 0
    endloop
  endfacet
  facet normal -0 0 -1
    outer loop
      vertex 1.05 0.799999 0
      vertex 0 0.4 0
      vertex 0 0.799999 0
    endloop
  endfacet
  facet normal 0 0 -1
    outer loop
      vertex 1.05 0.4 0
      vertex 4.95 0.4 0
      vertex 4.95 0 0
    endloop
  endfacet
  facet normal 0 0 -1
    outer loop
      vertex 4.95 0.4 0
      vertex 1.05 0.4 0
      vertex 4.95 0.799999 0
    endloop
  endfacet
  facet normal 0 0 -1
    outer loop
      vertex 4.95 0.799999 0
      vertex 1.05 0.799999 0
      vertex 4.95 1.67 0
    endloop
  endfacet
  facet normal 0 0 -1
    outer loop
      vertex 1.05 1.67 0
      vertex 4.95 1.67 0
      vertex 1.05 0.799999 0
    endloop
  endfacet
  facet normal 0 0 -1
    outer loop
      vertex 1.05 2.07 0
      vertex 4.95 2.07 0
      vertex 1.05 1.67 0
    endloop
  endfacet
  facet normal 0 0 -1
    outer loop
      vertex 4.95 2.07 0
      vertex 1.05 2.07 0
      vertex 4.95 2.94 0
    endloop
  endfacet
  facet normal 0 0 -1
    outer loop
      vertex 4.95 2.94 0
      vertex 1.05 2.94 0
      vertex 4.95 3.34 0
    endloop
  endfacet
  facet normal 0 0 -1
    outer loop
      vertex 1.05 3.34 0
      vertex 4.95 3.34 0
      vertex 1.05 2.94 0
    endloop
  endfacet
  facet normal 0 0 -1
    outer loop
      vertex 1.05 0.4 0
      vertex 4.95 0 0
      vertex 1.05 0 0
    endloop
  endfacet
  facet normal -0 0 -1
    outer loop
      vertex 4.95 0.799999 0
      vertex 1.05 0.4 0
      vertex 1.05 0.799999 0
    endloop
  endfacet
  facet normal 0 0 -1
    outer loop
      vertex 4.95 1.67 0
      vertex 1.05 1.67 0
      vertex 4.95 2.07 0
    endloop
  endfacet
  facet normal 0 0 -1
    outer loop
      vertex 1.05 2.94 0
      vertex 4.95 2.94 0
      vertex 1.05 2.07 0
    endloop
  endfacet
  facet normal 0 0 -1
    outer loop
      vertex 4.95 3.34 0
      vertex 1.05 3.34 0
      vertex 4.95 4.21 0
    endloop
  endfacet
  facet normal 0 0 -1
    outer loop
      vertex 1.05 4.21 0
      vertex 4.95 4.21 0
      vertex 1.05 3.34 0
    endloop
  endfacet
  facet normal 0 0 -1
    outer loop
      vertex 4.95 4.21 0
      vertex 1.05 4.21 0
      vertex 4.95 4.61 0
    endloop
  endfacet
  facet normal 0 0 -1
    outer loop
      vertex 1.05 4.61 0
      vertex 4.95 4.61 0
      vertex 1.05 4.21 0
    endloop
  endfacet
  facet normal 0 0 -1
    outer loop
      vertex 4.95 4.61 0
      vertex 1.05 4.61 0
      vertex 4.95 4.9 0
    endloop
  endfacet
  facet normal -0 0 -1
    outer loop
      vertex 4.95 4.9 0
      vertex 1.05 4.61 0
      vertex 1.05 4.9 0
    endloop
  endfacet
  facet normal 0 0 -1
    outer loop
      vertex 4.95 0.4 0
      vertex 6 0.799999 0
      vertex 6 0.4 0
    endloop
  endfacet
  facet normal -0 0 -1
    outer loop
      vertex 6 0.799999 0
      vertex 4.95 0.4 0
      vertex 4.95 0.799999 0
    endloop
  endfacet
  facet normal 0 0 -1
    outer loop
      vertex 4.95 1.67 0
      vertex 6 2.07 0
      vertex 6 1.67 0
    endloop
  endfacet
  facet normal -0 0 -1
    outer loop
      vertex 6 2.07 0
      vertex 4.95 1.67 0
      vertex 4.95 2.07 0
    endloop
  endfacet
  facet normal 0 0 -1
    outer loop
      vertex 4.95 2.94 0
      vertex 6 3.34 0
      vertex 6 2.94 0
    endloop
  endfacet
  facet normal -0 0 -1
    outer loop
      vertex 6 3.34 0
      vertex 4.95 2.94 0
      vertex 4.95 3.34 0
    endloop
  endfacet
  facet normal 0 0 -1
    outer loop
      vertex 4.95 4.21 0
      vertex 6 4.61 0
      vertex 6 4.21 0
    endloop
  endfacet
  facet normal -0 0 -1
    outer loop
      vertex 6 4.61 0
      vertex 4.95 4.21 0
      vertex 4.95 4.61 0
    endloop
  endfacet
  facet normal 0 -1 0
    outer loop
      vertex 0 0.4 0
      vertex 1.05 0.4 0.2
      vertex 0 0.4 0.2
    endloop
  endfacet
  facet normal 0 -1 -0
    outer loop
      vertex 1.05 0.4 0.2
      vertex 0 0.4 0
      vertex 1.05 0.4 0
    endloop
  endfacet
  facet normal 0 -1 0
    outer loop
      vertex 4.95 0.4 0
      vertex 6 0.4 0.2
      vertex 4.95 0.4 0.2
    endloop
  endfacet
  facet normal 0 -1 -0
    outer loop
      vertex 6 0.4 0.2
      vertex 4.95 0.4 0
      vertex 6 0.4 0
    endloop
  endfacet
  facet normal 0 1 -0
    outer loop
      vertex 6 0.799999 0
      vertex 4.95 0.799999 0.2
      vertex 6 0.799999 0.2
    endloop
  endfacet
  facet normal 0 1 0
    outer loop
      vertex 4.95 0.799999 0.2
      vertex 6 0.799999 0
      vertex 4.95 0.799999 0
    endloop
  endfacet
  facet normal 0 1 -0
    outer loop
      vertex 1.05 0.799999 0
      vertex 0 0.799999 0.2
      vertex 1.05 0.799999 0.2
    endloop
  endfacet
  facet normal 0 1 0
    outer loop
      vertex 0 0.799999 0.2
      vertex 1.05 0.799999 0
      vertex 0 0.799999 0
    endloop
  endfacet
  facet normal -1 0 0
    outer loop
      vertex 0 1.67 0
      vertex 0 2.07 0.2
      vertex 0 2.07 0
    endloop
  endfacet
  facet normal -1 -0 0
    outer loop
      vertex 0 2.07 0.2
      vertex 0 1.67 0
      vertex 0 1.67 0.2
    endloop
  endfacet
  facet normal -0 0 1
    outer loop
      vertex 0 2.07 0.2
      vertex 1.05 1.67 0.2
      vertex 1.05 2.07 0.2
    endloop
  endfacet
  facet normal 0 0 1
    outer loop
      vertex 1.05 1.67 0.2
      vertex 0 2.07 0.2
      vertex 0 1.67 0.2
    endloop
  endfacet
  facet normal -0 0 1
    outer loop
      vertex 4.95 2.07 0.2
      vertex 6 1.67 0.2
      vertex 6 2.07 0.2
    endloop
  endfacet
  facet normal 0 0 1
    outer loop
      vertex 6 1.67 0.2
      vertex 4.95 2.07 0.2
      vertex 4.95 1.67 0.2
    endloop
  endfacet
  facet normal 1 -0 0
    outer loop
      vertex 6 1.67 0.2
      vertex 6 2.07 0
      vertex 6 2.07 0.2
    endloop
  endfacet
  facet normal 1 0 0
    outer loop
      vertex 6 2.07 0
      vertex 6 1.67 0.2
      vertex 6 1.67 0
    endloop
  endfacet
  facet normal 0 1 -0
    outer loop
      vertex 6 2.07 0
      vertex 4.95 2.07 0.2
      vertex 6 2.07 0.2
    endloop
  endfacet
  facet normal 0 1 0
    outer loop
      vertex 4.95 2.07 0.2
      vertex 6 2.07 0
      vertex 4.95 2.07 0
    endloop
  endfacet
  facet normal 0 1 -0
    outer loop
      vertex 1.05 2.07 0
      vertex 0 2.07 0.2
      vertex 1.05 2.07 0.2
    endloop
  endfacet
  facet normal 0 1 0
    outer loop
      vertex 0 2.07 0.2
      vertex 1.05 2.07 0
      vertex 0 2.07 0
    endloop
  endfacet
  facet normal 0 -1 0
    outer loop
      vertex 0 1.67 0
      vertex 1.05 1.67 0.2
      vertex 0 1.67 0.2
    endloop
  endfacet
  facet normal 0 -1 -0
    outer loop
      vertex 1.05 1.67 0.2
      vertex 0 1.67 0
      vertex 1.05 1.67 0
    endloop
  endfacet
  facet normal 0 -1 0
    outer loop
      vertex 4.95 1.67 0
      vertex 6 1.67 0.2
      vertex 4.95 1.67 0.2
    endloop
  endfacet
  facet normal 0 -1 -0
    outer loop
      vertex 6 1.67 0.2
      vertex 4.95 1.67 0
      vertex 6 1.67 0
    endloop
  endfacet
  facet normal -1 0 0
    outer loop
      vertex 0 2.94 0
      vertex 0 3.34 0.2
      vertex 0 3.34 0
    endloop
  endfacet
  facet normal -1 -0 0
    outer loop
      vertex 0 3.34 0.2
      vertex 0 2.94 0
      vertex 0 2.94 0.2
    endloop
  endfacet
  facet normal -0 0 1
    outer loop
      vertex 0 3.34 0.2
      vertex 1.05 2.94 0.2
      vertex 1.05 3.34 0.2
    endloop
  endfacet
  facet normal 0 0 1
    outer loop
      vertex 1.05 2.94 0.2
      vertex 0 3.34 0.2
      vertex 0 2.94 0.2
    endloop
  endfacet
  facet normal -0 0 1
    outer loop
      vertex 4.95 3.34 0.2
      vertex 6 2.94 0.2
      vertex 6 3.34 0.2
    endloop
  endfacet
  facet normal 0 0 1
    outer loop
      vertex 6 2.94 0.2
      vertex 4.95 3.34 0.2
      vertex 4.95 2.94 0.2
    endloop
  endfacet
  facet normal 1 -0 0
    outer loop
      vertex 6 2.94 0.2
      vertex 6 3.34 0
      vertex 6 3.34 0.2
    endloop
  endfacet
  facet normal 1 0 0
    outer loop
      vertex 6 3.34 0
      vertex 6 2.94 0.2
      vertex 6 2.94 0
    endloop
  endfacet
  facet normal 0 1 -0
    outer loop
      vertex 6 3.34 0
      vertex 4.95 3.34 0.2
      vertex 6 3.34 0.2
    endloop
  endfacet
  facet normal 0 1 0
    outer loop
      vertex 4.95 3.34 0.2
      vertex 6 3.34 0
      vertex 4.95 3.34 0
    endloop
  endfacet
  facet normal 0 1 -0
    outer loop
      vertex 1.05 3.34 0
      vertex 0 3.34 0.2
      vertex 1.05 3.34 0.2
    endloop
  endfacet
  facet normal 0 1 0
    outer loop
      vertex 0 3.34 0.2
      vertex 1.05 3.34 0
      vertex 0 3.34 0
    endloop
  endfacet
  facet normal 0 -1 0
    outer loop
      vertex 0 2.94 0
      vertex 1.05 2.94 0.2
      vertex 0 2.94 0.2
    endloop
  endfacet
  facet normal 0 -1 -0
    outer loop
      vertex 1.05 2.94 0.2
      vertex 0 2.94 0
      vertex 1.05 2.94 0
    endloop
  endfacet
  facet normal 0 -1 0
    outer loop
      vertex 4.95 2.94 0
      vertex 6 2.94 0.2
      vertex 4.95 2.94 0.2
    endloop
  endfacet
  facet normal 0 -1 -0
    outer loop
      vertex 6 2.94 0.2
      vertex 4.95 2.94 0
      vertex 6 2.94 0
    endloop
  endfacet
  facet normal -1 0 0
    outer loop
      vertex 0 4.21 0
      vertex 0 4.61 0.2
      vertex 0 4.61 0
    endloop
  endfacet
  facet normal -1 -0 0
    outer loop
      vertex 0 4.61 0.2
      vertex 0 4.21 0
      vertex 0 4.21 0.2
    endloop
  endfacet
  facet normal -0 0 1
    outer loop
      vertex 0 4.61 0.2
      vertex 1.05 4.21 0.2
      vertex 1.05 4.61 0.2
    endloop
  endfacet
  facet normal 0 0 1
    outer loop
      vertex 1.05 4.21 0.2
      vertex 0 4.61 0.2
      vertex 0 4.21 0.2
    endloop
  endfacet
  facet normal -0 0 1
    outer loop
      vertex 4.95 4.61 0.2
      vertex 6 4.21 0.2
      vertex 6 4.61 0.2
    endloop
  endfacet
  facet normal 0 0 1
    outer loop
      vertex 6 4.21 0.2
      vertex 4.95 4.61 0.2
      vertex 4.95 4.21 0.2
    endloop
  endfacet
  facet normal 1 -0 0
    outer loop
      vertex 6 4.21 0.2
      vertex 6 4.61 0
      vertex 6 4.61 0.2
    endloop
  endfacet
  facet normal 1 0 0
    outer loop
      vertex 6 4.61 0
      vertex 6 4.21 0.2
      vertex 6 4.21 0
    endloop
  endfacet
  facet normal 0 -1 0
    outer loop
      vertex 0 4.21 0
      vertex 1.05 4.21 0.2
      vertex 0 4.21 0.2
    endloop
  endfacet
  facet normal 0 -1 -0
    outer loop
      vertex 1.05 4.21 0.2
      vertex 0 4.21 0
      vertex 1.05 4.21 0
    endloop
  endfacet
  facet normal 0 -1 0
    outer loop
      vertex 4.95 4.21 0
      vertex 6 4.21 0.2
      vertex 4.95 4.21 0.2
    endloop
  endfacet
  facet normal 0 -1 -0
    outer loop
      vertex 6 4.21 0.2
      vertex 4.95 4.21 0
      vertex 6 4.21 0
    endloop
  endfacet
  facet normal 0 1 -0
    outer loop
      vertex 6 4.61 0
      vertex 4.95 4.61 0.2
      vertex 6 4.61 0.2
    endloop
  endfacet
  facet normal 0 1 0
    outer loop
      vertex 4.95 4.61 0.2
      vertex 6 4.61 0
      vertex 4.95 4.61 0
    endloop
  endfacet
  facet normal 0 1 -0
    outer loop
      vertex 1.05 4.61 0
      vertex 0 4.61 0.2
      vertex 1.05 4.61 0.2
    endloop
  endfacet
  facet normal 0 1 0
    outer loop
      vertex 0 4.61 0.2
      vertex 1.05 4.61 0
      vertex 0 4.61 0
    endloop
  endfacet
  facet normal -1 0 0
    outer loop
      vertex 1.05 0.4 0
      vertex 1.05 0 0
      vertex 1.05 0.4 0.2
    endloop
  endfacet
  facet normal -1 0 0
    outer loop
      vertex 1.05 1.67 0
      vertex 1.05 0.799999 0
      vertex 1.05 1.67 0.2
    endloop
  endfacet
  facet normal -1 0 0
    outer loop
      vertex 1.05 2.94 0
      vertex 1.05 2.07 0
      vertex 1.05 2.94 0.2
    endloop
  endfacet
  facet normal -1 0 0
    outer loop
      vertex 1.05 4.21 0
      vertex 1.05 3.34 0
      vertex 1.05 4.21 0.2
    endloop
  endfacet
  facet normal -1 0 0
    outer loop
      vertex 1.05 4.61 0.2
      vertex 1.05 4.9 0
      vertex 1.05 4.61 0
    endloop
  endfacet
  facet normal -1 0 0
    outer loop
      vertex 1.05 4.9 0
      vertex 1.05 4.61 0.2
      vertex 1.05 4.9 1.55
    endloop
  endfacet
  facet normal -1 0 0
    outer loop
      vertex 1.05 4.21 0.2
      vertex 1.05 4.9 1.55
      vertex 1.05 4.61 0.2
    endloop
  endfacet
  facet normal -1 0 0
    outer loop
      vertex 1.05 3.34 0.2
      vertex 1.05 4.21 0.2
      vertex 1.05 3.34 0
    endloop
  endfacet
  facet normal -1 0 0
    outer loop
      vertex 1.05 4.21 0.2
      vertex 1.05 3.34 0.2
      vertex 1.05 4.9 1.55
    endloop
  endfacet
  facet normal -1 0 0
    outer loop
      vertex 1.05 2.94 0.2
      vertex 1.05 4.9 1.55
      vertex 1.05 3.34 0.2
    endloop
  endfacet
  facet normal -1 0 0
    outer loop
      vertex 1.05 2.07 0.2
      vertex 1.05 2.94 0.2
      vertex 1.05 2.07 0
    endloop
  endfacet
  facet normal -1 0 0
    outer loop
      vertex 1.05 2.94 0.2
      vertex 1.05 2.07 0.2
      vertex 1.05 4.9 1.55
    endloop
  endfacet
  facet normal -1 0 0
    outer loop
      vertex 1.05 0 1.55
      vertex 1.05 2.07 0.2
      vertex 1.05 1.67 0.2
    endloop
  endfacet
  facet normal -1 0 0
    outer loop
      vertex 1.05 0.799999 0.2
      vertex 1.05 1.67 0.2
      vertex 1.05 0.799999 0
    endloop
  endfacet
  facet normal -1 0 0
    outer loop
      vertex 1.05 0 1.55
      vertex 1.05 1.67 0.2
      vertex 1.05 0.799999 0.2
    endloop
  endfacet
  facet normal -1 0 0
    outer loop
      vertex 1.05 0 1.55
      vertex 1.05 0.799999 0.2
      vertex 1.05 0.4 0.2
    endloop
  endfacet
  facet normal -1 0 0
    outer loop
      vertex 1.05 2.07 0.2
      vertex 1.05 0 1.55
      vertex 1.05 4.9 1.55
    endloop
  endfacet
  facet normal -1 0 0
    outer loop
      vertex 1.05 0 1.55
      vertex 1.05 0.4 0.2
      vertex 1.05 0 0
    endloop
  endfacet
  facet normal -0 0 1
    outer loop
      vertex 1.05 4.9 1.55
      vertex 4.95 0 1.55
      vertex 4.95 4.9 1.55
    endloop
  endfacet
  facet normal 0 0 1
    outer loop
      vertex 4.95 0 1.55
      vertex 1.05 4.9 1.55
      vertex 1.05 0 1.55
    endloop
  endfacet
  facet normal 1 0 0
    outer loop
      vertex 4.95 4.9 1.55
      vertex 4.95 4.61 0.2
      vertex 4.95 4.9 0
    endloop
  endfacet
  facet normal 1 0 0
    outer loop
      vertex 4.95 4.9 1.55
      vertex 4.95 4.21 0.2
      vertex 4.95 4.61 0.2
    endloop
  endfacet
  facet normal 1 0 0
    outer loop
      vertex 4.95 4.21 0.2
      vertex 4.95 3.34 0.2
      vertex 4.95 4.21 0
    endloop
  endfacet
  facet normal 1 0 0
    outer loop
      vertex 4.95 4.9 1.55
      vertex 4.95 3.34 0.2
      vertex 4.95 4.21 0.2
    endloop
  endfacet
  facet normal 1 0 0
    outer loop
      vertex 4.95 4.9 1.55
      vertex 4.95 2.94 0.2
      vertex 4.95 3.34 0.2
    endloop
  endfacet
  facet normal 1 0 0
    outer loop
      vertex 4.95 2.94 0.2
      vertex 4.95 2.07 0.2
      vertex 4.95 2.94 0
    endloop
  endfacet
  facet normal 1 0 0
    outer loop
      vertex 4.95 4.9 1.55
      vertex 4.95 2.07 0.2
      vertex 4.95 2.94 0.2
    endloop
  endfacet
  facet normal 1 -0 0
    outer loop
      vertex 4.95 0 1.55
      vertex 4.95 2.07 0.2
      vertex 4.95 4.9 1.55
    endloop
  endfacet
  facet normal 1 0 0
    outer loop
      vertex 4.95 1.67 0.2
      vertex 4.95 0.799999 0.2
      vertex 4.95 1.67 0
    endloop
  endfacet
  facet normal 1 0 0
    outer loop
      vertex 4.95 2.07 0.2
      vertex 4.95 0 1.55
      vertex 4.95 1.67 0.2
    endloop
  endfacet
  facet normal 1 0 0
    outer loop
      vertex 4.95 1.67 0.2
      vertex 4.95 0 1.55
      vertex 4.95 0.799999 0.2
    endloop
  endfacet
  facet normal 1 0 0
    outer loop
      vertex 4.95 0.799999 0.2
      vertex 4.95 0 1.55
      vertex 4.95 0.4 0.2
    endloop
  endfacet
  facet normal 1 0 0
    outer loop
      vertex 4.95 0 0
      vertex 4.95 0.4 0.2
      vertex 4.95 0 1.55
    endloop
  endfacet
  facet normal 1 0 0
    outer loop
      vertex 4.95 0.4 0.2
      vertex 4.95 0 0
      vertex 4.95 0.4 0
    endloop
  endfacet
  facet normal 1 0 0
    outer loop
      vertex 4.95 4.9 0
      vertex 4.95 4.61 0.2
      vertex 4.95 4.61 0
    endloop
  endfacet
  facet normal 1 0 0
    outer loop
      vertex 4.95 4.21 0
      vertex 4.95 3.34 0.2
      vertex 4.95 3.34 0
    endloop
  endfacet
  facet normal 1 0 0
    outer loop
      vertex 4.95 2.94 0
      vertex 4.95 2.07 0.2
      vertex 4.95 2.07 0
    endloop
  endfacet
  facet normal 1 0 0
    outer loop
      vertex 4.95 1.67 0
      vertex 4.95 0.799999 0.2
      vertex 4.95 0.799999 0
    endloop
  endfacet
  facet normal 0 -1 0
    outer loop
      vertex 1.05 0 0
      vertex 4.95 0 1.55
      vertex 1.05 0 1.55
    endloop
  endfacet
  facet normal 0 -1 -0
    outer loop
      vertex 4.95 0 1.55
      vertex 1.05 0 0
      vertex 4.95 0 0
    endloop
  endfacet
  facet normal 0 1 -0
    outer loop
      vertex 4.95 4.9 0
      vertex 1.05 4.9 1.55
      vertex 4.95 4.9 1.55
    endloop
  endfacet
  facet normal 0 1 0
    outer loop
      vertex 1.05 4.9 1.55
      vertex 4.95 4.9 0
      vertex 1.05 4.9 0
    endloop
  endfacet
endsolid OpenSCAD_Model
