solid OpenSCAD_Model
  facet normal -1 0 0
    outer loop
      vertex 35 -15.5 -0.2
      vertex 35 1.22465e-16 1.8
      vertex 35 -1.22465e-16 -0.2
    endloop
  endfacet
  facet normal -1 0 0
    outer loop
      vertex 35 -16.4511 0.8
      vertex 35 -15.5 -0.2
      vertex 35 -16.0878 -0.00901718
    endloop
  endfacet
  facet normal -1 0 0
    outer loop
      vertex 35 -16.4511 0.8
      vertex 35 -16.0878 -0.00901718
      vertex 35 -16.4511 0.490983
    endloop
  endfacet
  facet normal -1 0 0
    outer loop
      vertex 35 -15.5 -0.2
      vertex 35 -16.4511 0.8
      vertex 35 -16.5 1.8
    endloop
  endfacet
  facet normal -1 0 0
    outer loop
      vertex 35 -16.5 1.8
      vertex 35 -16.4511 0.8
      vertex 35 -16.5 0.8
    endloop
  endfacet
  facet normal -1 0 0
    outer loop
      vertex 35 -15.5 -0.2
      vertex 35 -16.5 1.8
      vertex 35 1.22465e-16 1.8
    endloop
  endfacet
  facet normal -0 0 1
    outer loop
      vertex 46.8 10 1.8
      vertex 57 1.22465e-16 1.8
      vertex 57 16.5 1.8
    endloop
  endfacet
  facet normal 0 0 1
    outer loop
      vertex 46.8 11.4 1.8
      vertex 57 16.5 1.8
      vertex 46.8 14.9 1.8
    endloop
  endfacet
  facet normal -0 0 1
    outer loop
      vertex 46 16.5 1.8
      vertex 46.8 14.9 1.8
      vertex 57 16.5 1.8
    endloop
  endfacet
  facet normal 0 0 1
    outer loop
      vertex 46 16.5 1.8
      vertex 45.4 14.9 1.8
      vertex 46.8 14.9 1.8
    endloop
  endfacet
  facet normal 0 0 1
    outer loop
      vertex 46 16.5 1.8
      vertex 36.3 14.9 1.8
      vertex 45.4 14.9 1.8
    endloop
  endfacet
  facet normal 0 0 1
    outer loop
      vertex 35 16.5 1.8
      vertex 36.3 13.5 1.8
      vertex 36.3 14.9 1.8
    endloop
  endfacet
  facet normal 0 0 1
    outer loop
      vertex 36.3 13.5 1.8
      vertex 35 16.5 1.8
      vertex 36.3 10 1.8
    endloop
  endfacet
  facet normal -0 0 1
    outer loop
      vertex 35 16.5 1.8
      vertex 36.3 14.9 1.8
      vertex 46 16.5 1.8
    endloop
  endfacet
  facet normal 0 0 1
    outer loop
      vertex 46.8 10 1.8
      vertex 57 16.5 1.8
      vertex 46.8 11.4 1.8
    endloop
  endfacet
  facet normal 0 0 1
    outer loop
      vertex 35 1.22465e-16 1.8
      vertex 57 1.22465e-16 1.8
      vertex 46.8 10 1.8
    endloop
  endfacet
  facet normal 0 0 1
    outer loop
      vertex 57 1.22465e-16 1.8
      vertex 46 -16.5 1.8
      vertex 57 -16.5 1.8
    endloop
  endfacet
  facet normal 0 0 1
    outer loop
      vertex 35 1.22465e-16 1.8
      vertex 46.8 10 1.8
      vertex 37.7 10 1.8
    endloop
  endfacet
  facet normal 0 0 1
    outer loop
      vertex 35 1.22465e-16 1.8
      vertex 37.7 10 1.8
      vertex 36.3 10 1.8
    endloop
  endfacet
  facet normal 0 0 1
    outer loop
      vertex 35 1.22465e-16 1.8
      vertex 36.3 10 1.8
      vertex 35 16.5 1.8
    endloop
  endfacet
  facet normal 0 0 1
    outer loop
      vertex 57 1.22465e-16 1.8
      vertex 35 1.22465e-16 1.8
      vertex 46 -16.5 1.8
    endloop
  endfacet
  facet normal 0 0 1
    outer loop
      vertex 46 -16.5 1.8
      vertex 35 1.22465e-16 1.8
      vertex 35 -16.5 1.8
    endloop
  endfacet
  facet normal 1 -0 0
    outer loop
      vertex 57 1.22465e-16 1.8
      vertex 57 16.5 -0.2
      vertex 57 16.5 1.8
    endloop
  endfacet
  facet normal 1 0 0
    outer loop
      vertex 57 16.5 -0.2
      vertex 57 1.22465e-16 1.8
      vertex 57 -1.22465e-16 -0.2
    endloop
  endfacet
  facet normal 0 -1 0
    outer loop
      vertex 46 -16.5 0.8
      vertex 57 -16.5 1.8
      vertex 46 -16.5 1.8
    endloop
  endfacet
  facet normal 0 -1 -0
    outer loop
      vertex 57 -16.5 1.8
      vertex 46 -16.5 0.8
      vertex 57 -16.5 0.8
    endloop
  endfacet
  facet normal 0 1 -0
    outer loop
      vertex 46 16.5 -0.2
      vertex 35 16.5 1.8
      vertex 46 16.5 1.8
    endloop
  endfacet
  facet normal 0 1 0
    outer loop
      vertex 35 16.5 1.8
      vertex 46 16.5 -0.2
      vertex 35 16.5 -0.2
    endloop
  endfacet
  facet normal 0 0 -1
    outer loop
      vertex 35 -1.22465e-16 -0.2
      vertex 57 -1.22465e-16 -0.2
      vertex 57 -15.5 -0.2
    endloop
  endfacet
  facet normal 0 0 -1
    outer loop
      vertex 57 -1.22465e-16 -0.2
      vertex 44 11 -0.2
      vertex 57 16.5 -0.2
    endloop
  endfacet
  facet normal -0 0 -1
    outer loop
      vertex 57 16.5 -0.2
      vertex 44 11 -0.2
      vertex 46 16.5 -0.2
    endloop
  endfacet
  facet normal 0 0 -1
    outer loop
      vertex 57 -1.22465e-16 -0.2
      vertex 35 -1.22465e-16 -0.2
      vertex 44 11 -0.2
    endloop
  endfacet
  facet normal -0 0 -1
    outer loop
      vertex 44 11 -0.2
      vertex 35 -1.22465e-16 -0.2
      vertex 40.5 11 -0.2
    endloop
  endfacet
  facet normal 0 0 -1
    outer loop
      vertex 35 16.5 -0.2
      vertex 39.1 12.5 -0.2
      vertex 39.1 11 -0.2
    endloop
  endfacet
  facet normal -0 0 -1
    outer loop
      vertex 40.5 11 -0.2
      vertex 35 -1.22465e-16 -0.2
      vertex 39.1 11 -0.2
    endloop
  endfacet
  facet normal 0 0 -1
    outer loop
      vertex 35 -1.22465e-16 -0.2
      vertex 57 -15.5 -0.2
      vertex 35 -15.5 -0.2
    endloop
  endfacet
  facet normal 0 0 -1
    outer loop
      vertex 44 12.4 -0.2
      vertex 46 16.5 -0.2
      vertex 44 11 -0.2
    endloop
  endfacet
  facet normal 0 0 -1
    outer loop
      vertex 44 13.9 -0.2
      vertex 46 16.5 -0.2
      vertex 44 12.4 -0.2
    endloop
  endfacet
  facet normal 0 0 -1
    outer loop
      vertex 42.6 13.9 -0.2
      vertex 46 16.5 -0.2
      vertex 44 13.9 -0.2
    endloop
  endfacet
  facet normal 0 0 -1
    outer loop
      vertex 39.1 13.9 -0.2
      vertex 46 16.5 -0.2
      vertex 42.6 13.9 -0.2
    endloop
  endfacet
  facet normal 0 0 -1
    outer loop
      vertex 35 16.5 -0.2
      vertex 39.1 11 -0.2
      vertex 35 -1.22465e-16 -0.2
    endloop
  endfacet
  facet normal 0 0 -1
    outer loop
      vertex 39.1 13.9 -0.2
      vertex 35 16.5 -0.2
      vertex 46 16.5 -0.2
    endloop
  endfacet
  facet normal 0 0 -1
    outer loop
      vertex 39.1 12.5 -0.2
      vertex 35 16.5 -0.2
      vertex 39.1 13.9 -0.2
    endloop
  endfacet
  facet normal 1 0 0
    outer loop
      vertex 57 1.22465e-16 1.8
      vertex 57 -15.5 -0.2
      vertex 57 -1.22465e-16 -0.2
    endloop
  endfacet
  facet normal 1 -0 0
    outer loop
      vertex 57 -16.5 1.8
      vertex 57 -15.5 -0.2
      vertex 57 1.22465e-16 1.8
    endloop
  endfacet
  facet normal 1 -0 -0
    outer loop
      vertex 57 -16.4511 0.8
      vertex 57 -15.5 -0.2
      vertex 57 -16.5 1.8
    endloop
  endfacet
  facet normal 1 0 0
    outer loop
      vertex 57 -15.5 -0.2
      vertex 57 -16.4511 0.8
      vertex 57 -16.0878 -0.00901718
    endloop
  endfacet
  facet normal 1 0 0
    outer loop
      vertex 57 -16.4511 0.8
      vertex 57 -16.5 1.8
      vertex 57 -16.5 0.8
    endloop
  endfacet
  facet normal 1 0 0
    outer loop
      vertex 57 -16.0878 -0.00901718
      vertex 57 -16.4511 0.8
      vertex 57 -16.4511 0.490983
    endloop
  endfacet
  facet normal -1 0 0
    outer loop
      vertex 35 16.5 -0.2
      vertex 35 1.22465e-16 1.8
      vertex 35 16.5 1.8
    endloop
  endfacet
  facet normal -1 0 -0
    outer loop
      vertex 35 1.22465e-16 1.8
      vertex 35 16.5 -0.2
      vertex 35 -1.22465e-16 -0.2
    endloop
  endfacet
  facet normal 0 -0.309017 -0.951056
    outer loop
      vertex 35 -16.0878 -0.00901718
      vertex 57 -15.5 -0.2
      vertex 57 -16.0878 -0.00901718
    endloop
  endfacet
  facet normal -0 -0.309017 -0.951056
    outer loop
      vertex 57 -15.5 -0.2
      vertex 35 -16.0878 -0.00901718
      vertex 35 -15.5 -0.2
    endloop
  endfacet
  facet normal 0 -0.809015 -0.587788
    outer loop
      vertex 35 -16.0878 -0.00901718
      vertex 57 -16.4511 0.490983
      vertex 35 -16.4511 0.490983
    endloop
  endfacet
  facet normal 0 -0.809015 -0.587788
    outer loop
      vertex 57 -16.4511 0.490983
      vertex 35 -16.0878 -0.00901718
      vertex 57 -16.0878 -0.00901718
    endloop
  endfacet
  facet normal 0 -1 0
    outer loop
      vertex 35 -16.4511 0.490983
      vertex 57 -16.4511 0.8
      vertex 35 -16.4511 0.8
    endloop
  endfacet
  facet normal 0 -1 -0
    outer loop
      vertex 57 -16.4511 0.8
      vertex 35 -16.4511 0.490983
      vertex 57 -16.4511 0.490983
    endloop
  endfacet
  facet normal 0 0 -1
    outer loop
      vertex 46 -16.5 0.8
      vertex 57 -16.4511 0.8
      vertex 57 -16.5 0.8
    endloop
  endfacet
  facet normal 0 0 -1
    outer loop
      vertex 35 -16.4511 0.8
      vertex 46 -16.5 0.8
      vertex 35 -16.5 0.8
    endloop
  endfacet
  facet normal 0 0 -1
    outer loop
      vertex 46 -16.5 0.8
      vertex 35 -16.4511 0.8
      vertex 57 -16.4511 0.8
    endloop
  endfacet
  facet normal 0 -1 0
    outer loop
      vertex 35 -16.5 0.8
      vertex 46 -16.5 1.8
      vertex 35 -16.5 1.8
    endloop
  endfacet
  facet normal 0 -1 -0
    outer loop
      vertex 46 -16.5 1.8
      vertex 35 -16.5 0.8
      vertex 46 -16.5 0.8
    endloop
  endfacet
  facet normal 0 1 -0
    outer loop
      vertex 57 16.5 -0.2
      vertex 46 16.5 1.8
      vertex 57 16.5 1.8
    endloop
  endfacet
  facet normal 0 1 0
    outer loop
      vertex 46 16.5 1.8
      vertex 57 16.5 -0.2
      vertex 46 16.5 -0.2
    endloop
  endfacet
  facet normal 1 -0 0
    outer loop
      vertex 57 -16.5 6.6
      vertex 57 16.5 1.8
      vertex 57 16.5 6.6
    endloop
  endfacet
  facet normal 1 0 0
    outer loop
      vertex 57 16.5 1.8
      vertex 57 -16.5 6.6
      vertex 57 -16.5 1.8
    endloop
  endfacet
  facet normal 0 0 -1
    outer loop
      vertex 57 -16.5 1.8
      vertex 56 -15.5 1.8
      vertex 57 16.5 1.8
    endloop
  endfacet
  facet normal 0 0 -1
    outer loop
      vertex 57 -16.5 1.8
      vertex 36 -15.5 1.8
      vertex 56 -15.5 1.8
    endloop
  endfacet
  facet normal 0 0 -1
    outer loop
      vertex 35 -16.5 1.8
      vertex 36 -15.5 1.8
      vertex 57 -16.5 1.8
    endloop
  endfacet
  facet normal 0 0 -1
    outer loop
      vertex 35 16.5 1.8
      vertex 36 -15.5 1.8
      vertex 35 -16.5 1.8
    endloop
  endfacet
  facet normal 0 0 -1
    outer loop
      vertex 36 -15.5 1.8
      vertex 35 16.5 1.8
      vertex 36 16.5 1.8
    endloop
  endfacet
  facet normal -0 0 -1
    outer loop
      vertex 57 16.5 1.8
      vertex 56 -15.5 1.8
      vertex 56 16.5 1.8
    endloop
  endfacet
  facet normal -1 0 0
    outer loop
      vertex 56 -15.5 1.8
      vertex 56 16.5 6.6
      vertex 56 16.5 1.8
    endloop
  endfacet
  facet normal -1 -0 0
    outer loop
      vertex 56 16.5 6.6
      vertex 56 -15.5 1.8
      vertex 56 -15.5 6.6
    endloop
  endfacet
  facet normal 0 1 -0
    outer loop
      vertex 57 16.5 1.8
      vertex 56 16.5 6.6
      vertex 57 16.5 6.6
    endloop
  endfacet
  facet normal 0 1 0
    outer loop
      vertex 56 16.5 6.6
      vertex 57 16.5 1.8
      vertex 56 16.5 1.8
    endloop
  endfacet
  facet normal 0 0 1
    outer loop
      vertex 36 16.5 6.6
      vertex 35 16.5 6.6
      vertex 36 -15.5 6.6
    endloop
  endfacet
  facet normal 0 0 1
    outer loop
      vertex 56 -15.5 6.6
      vertex 57 16.5 6.6
      vertex 56 16.5 6.6
    endloop
  endfacet
  facet normal 0 0 1
    outer loop
      vertex 57 16.5 6.6
      vertex 56 -15.5 6.6
      vertex 57 -16.5 6.6
    endloop
  endfacet
  facet normal -0 0 1
    outer loop
      vertex 36 -15.5 6.6
      vertex 57 -16.5 6.6
      vertex 56 -15.5 6.6
    endloop
  endfacet
  facet normal 0 0 1
    outer loop
      vertex 36 -15.5 6.6
      vertex 35 -16.5 6.6
      vertex 57 -16.5 6.6
    endloop
  endfacet
  facet normal 0 0 1
    outer loop
      vertex 35 -16.5 6.6
      vertex 36 -15.5 6.6
      vertex 35 16.5 6.6
    endloop
  endfacet
  facet normal 0 -1 0
    outer loop
      vertex 35 -16.5 1.8
      vertex 57 -16.5 6.6
      vertex 35 -16.5 6.6
    endloop
  endfacet
  facet normal 0 -1 -0
    outer loop
      vertex 57 -16.5 6.6
      vertex 35 -16.5 1.8
      vertex 57 -16.5 1.8
    endloop
  endfacet
  facet normal 1 -0 0
    outer loop
      vertex 36 -15.5 6.6
      vertex 36 16.5 1.8
      vertex 36 16.5 6.6
    endloop
  endfacet
  facet normal 1 0 0
    outer loop
      vertex 36 16.5 1.8
      vertex 36 -15.5 6.6
      vertex 36 -15.5 1.8
    endloop
  endfacet
  facet normal -1 0 0
    outer loop
      vertex 35 -16.5 1.8
      vertex 35 16.5 6.6
      vertex 35 16.5 1.8
    endloop
  endfacet
  facet normal -1 -0 0
    outer loop
      vertex 35 16.5 6.6
      vertex 35 -16.5 1.8
      vertex 35 -16.5 6.6
    endloop
  endfacet
  facet normal 0 1 -0
    outer loop
      vertex 36 16.5 1.8
      vertex 35 16.5 6.6
      vertex 36 16.5 6.6
    endloop
  endfacet
  facet normal 0 1 0
    outer loop
      vertex 35 16.5 6.6
      vertex 36 16.5 1.8
      vertex 35 16.5 1.8
    endloop
  endfacet
  facet normal 0 1 -0
    outer loop
      vertex 56 -15.5 1.8
      vertex 36 -15.5 6.6
      vertex 56 -15.5 6.6
    endloop
  endfacet
  facet normal 0 1 0
    outer loop
      vertex 36 -15.5 6.6
      vertex 56 -15.5 1.8
      vertex 36 -15.5 1.8
    endloop
  endfacet
  facet normal 0 0 1
    outer loop
      vertex 45.4 14.9 1.7
      vertex 42.6 13.9 1.7
      vertex 44 13.9 1.7
    endloop
  endfacet
  facet normal 0 0 1
    outer loop
      vertex 45.4 14.9 1.7
      vertex 39.1 13.9 1.7
      vertex 42.6 13.9 1.7
    endloop
  endfacet
  facet normal -0 0 1
    outer loop
      vertex 36.3 13.5 1.7
      vertex 39.1 12.5 1.7
      vertex 39.1 13.9 1.7
    endloop
  endfacet
  facet normal 0 -0 1
    outer loop
      vertex 37.7 10 1.7
      vertex 39.1 12.5 1.7
      vertex 36.3 13.5 1.7
    endloop
  endfacet
  facet normal -0 0 1
    outer loop
      vertex 36.3 14.9 1.7
      vertex 39.1 13.9 1.7
      vertex 45.4 14.9 1.7
    endloop
  endfacet
  facet normal 0 0 1
    outer loop
      vertex 36.3 13.5 1.7
      vertex 39.1 13.9 1.7
      vertex 36.3 14.9 1.7
    endloop
  endfacet
  facet normal 0 0 1
    outer loop
      vertex 39.1 12.5 1.7
      vertex 37.7 10 1.7
      vertex 39.1 11 1.7
    endloop
  endfacet
  facet normal 0 0 1
    outer loop
      vertex 37.7 10 1.7
      vertex 36.3 13.5 1.7
      vertex 36.3 10 1.7
    endloop
  endfacet
  facet normal -0 0 1
    outer loop
      vertex 45.4 14.9 1.7
      vertex 46.8 11.4 1.7
      vertex 46.8 14.9 1.7
    endloop
  endfacet
  facet normal 0 0 1
    outer loop
      vertex 46.8 11.4 1.7
      vertex 45.4 14.9 1.7
      vertex 44 12.4 1.7
    endloop
  endfacet
  facet normal 0 0 1
    outer loop
      vertex 44 12.4 1.7
      vertex 45.4 14.9 1.7
      vertex 44 13.9 1.7
    endloop
  endfacet
  facet normal 0 0 1
    outer loop
      vertex 44 11 1.7
      vertex 46.8 11.4 1.7
      vertex 44 12.4 1.7
    endloop
  endfacet
  facet normal 0 0 1
    outer loop
      vertex 46.8 11.4 1.7
      vertex 44 11 1.7
      vertex 46.8 10 1.7
    endloop
  endfacet
  facet normal -0 0 1
    outer loop
      vertex 40.5 11 1.7
      vertex 46.8 10 1.7
      vertex 44 11 1.7
    endloop
  endfacet
  facet normal 0 0 1
    outer loop
      vertex 37.7 10 1.7
      vertex 40.5 11 1.7
      vertex 39.1 11 1.7
    endloop
  endfacet
  facet normal 0 0 1
    outer loop
      vertex 40.5 11 1.7
      vertex 37.7 10 1.7
      vertex 46.8 10 1.7
    endloop
  endfacet
  facet normal 0 -1 0
    outer loop
      vertex 36.3 14.9 1.7
      vertex 45.4 14.9 1.8
      vertex 36.3 14.9 1.8
    endloop
  endfacet
  facet normal 0 -1 -0
    outer loop
      vertex 45.4 14.9 1.8
      vertex 36.3 14.9 1.7
      vertex 45.4 14.9 1.7
    endloop
  endfacet
  facet normal 1 -0 0
    outer loop
      vertex 36.3 13.5 1.8
      vertex 36.3 14.9 1.7
      vertex 36.3 14.9 1.8
    endloop
  endfacet
  facet normal 1 0 0
    outer loop
      vertex 36.3 14.9 1.7
      vertex 36.3 13.5 1.8
      vertex 36.3 13.5 1.7
    endloop
  endfacet
  facet normal 0 -1 0
    outer loop
      vertex 39.1 13.9 -0.2
      vertex 42.6 13.9 1.7
      vertex 39.1 13.9 1.7
    endloop
  endfacet
  facet normal 0 -1 -0
    outer loop
      vertex 42.6 13.9 1.7
      vertex 39.1 13.9 -0.2
      vertex 42.6 13.9 -0.2
    endloop
  endfacet
  facet normal 1 -0 0
    outer loop
      vertex 39.1 12.5 1.7
      vertex 39.1 13.9 -0.2
      vertex 39.1 13.9 1.7
    endloop
  endfacet
  facet normal 1 0 0
    outer loop
      vertex 39.1 13.9 -0.2
      vertex 39.1 12.5 1.7
      vertex 39.1 12.5 -0.2
    endloop
  endfacet
  facet normal 0 1 -0
    outer loop
      vertex 46.8 10 1.7
      vertex 37.7 10 1.8
      vertex 46.8 10 1.8
    endloop
  endfacet
  facet normal 0 1 0
    outer loop
      vertex 37.7 10 1.8
      vertex 46.8 10 1.7
      vertex 37.7 10 1.7
    endloop
  endfacet
  facet normal -1 0 0
    outer loop
      vertex 46.8 10 1.7
      vertex 46.8 11.4 1.8
      vertex 46.8 11.4 1.7
    endloop
  endfacet
  facet normal -1 -0 0
    outer loop
      vertex 46.8 11.4 1.8
      vertex 46.8 10 1.7
      vertex 46.8 10 1.8
    endloop
  endfacet
  facet normal 0 1 -0
    outer loop
      vertex 44 11 -0.2
      vertex 40.5 11 1.7
      vertex 44 11 1.7
    endloop
  endfacet
  facet normal 0 1 0
    outer loop
      vertex 40.5 11 1.7
      vertex 44 11 -0.2
      vertex 40.5 11 -0.2
    endloop
  endfacet
  facet normal -1 0 0
    outer loop
      vertex 44 11 -0.2
      vertex 44 12.4 1.7
      vertex 44 12.4 -0.2
    endloop
  endfacet
  facet normal -1 -0 0
    outer loop
      vertex 44 12.4 1.7
      vertex 44 11 -0.2
      vertex 44 11 1.7
    endloop
  endfacet
  facet normal 0 1 -0
    outer loop
      vertex 37.7 10 1.7
      vertex 36.3 10 1.8
      vertex 37.7 10 1.8
    endloop
  endfacet
  facet normal 0 1 0
    outer loop
      vertex 36.3 10 1.8
      vertex 37.7 10 1.7
      vertex 36.3 10 1.7
    endloop
  endfacet
  facet normal 1 -0 0
    outer loop
      vertex 36.3 10 1.8
      vertex 36.3 13.5 1.7
      vertex 36.3 13.5 1.8
    endloop
  endfacet
  facet normal 1 0 0
    outer loop
      vertex 36.3 13.5 1.7
      vertex 36.3 10 1.8
      vertex 36.3 10 1.7
    endloop
  endfacet
  facet normal 0 1 -0
    outer loop
      vertex 40.5 11 -0.2
      vertex 39.1 11 1.7
      vertex 40.5 11 1.7
    endloop
  endfacet
  facet normal 0 1 0
    outer loop
      vertex 39.1 11 1.7
      vertex 40.5 11 -0.2
      vertex 39.1 11 -0.2
    endloop
  endfacet
  facet normal 1 -0 0
    outer loop
      vertex 39.1 11 1.7
      vertex 39.1 12.5 -0.2
      vertex 39.1 12.5 1.7
    endloop
  endfacet
  facet normal 1 0 0
    outer loop
      vertex 39.1 12.5 -0.2
      vertex 39.1 11 1.7
      vertex 39.1 11 -0.2
    endloop
  endfacet
  facet normal 0 -1 0
    outer loop
      vertex 45.4 14.9 1.7
      vertex 46.8 14.9 1.8
      vertex 45.4 14.9 1.8
    endloop
  endfacet
  facet normal 0 -1 -0
    outer loop
      vertex 46.8 14.9 1.8
      vertex 45.4 14.9 1.7
      vertex 46.8 14.9 1.7
    endloop
  endfacet
  facet normal -1 0 0
    outer loop
      vertex 46.8 11.4 1.7
      vertex 46.8 14.9 1.8
      vertex 46.8 14.9 1.7
    endloop
  endfacet
  facet normal -1 -0 0
    outer loop
      vertex 46.8 14.9 1.8
      vertex 46.8 11.4 1.7
      vertex 46.8 11.4 1.8
    endloop
  endfacet
  facet normal 0 -1 0
    outer loop
      vertex 42.6 13.9 -0.2
      vertex 44 13.9 1.7
      vertex 42.6 13.9 1.7
    endloop
  endfacet
  facet normal 0 -1 -0
    outer loop
      vertex 44 13.9 1.7
      vertex 42.6 13.9 -0.2
      vertex 44 13.9 -0.2
    endloop
  endfacet
  facet normal -1 0 0
    outer loop
      vertex 44 12.4 -0.2
      vertex 44 13.9 1.7
      vertex 44 13.9 -0.2
    endloop
  endfacet
  facet normal -1 -0 0
    outer loop
      vertex 44 13.9 1.7
      vertex 44 12.4 -0.2
      vertex 44 12.4 1.7
    endloop
  endfacet
endsolid OpenSCAD_Model
