solid OpenSCAD_Model
  facet normal -0 0 1
    outer loop
      vertex 19.1 -3 3
      vertex 20 -3.5 3
      vertex 20 -2 3
    endloop
  endfacet
  facet normal 0 0 1
    outer loop
      vertex 19.1 -16.1 3
      vertex 20 -3.5 3
      vertex 19.1 -3 3
    endloop
  endfacet
  facet normal 0 0 1
    outer loop
      vertex 20 -2 3
      vertex 1 -3 3
      vertex 19.1 -3 3
    endloop
  endfacet
  facet normal 0 0 1
    outer loop
      vertex -2.9976e-15 -17 3
      vertex 1 -3 3
      vertex 3.33067e-16 -2 3
    endloop
  endfacet
  facet normal -0 0 1
    outer loop
      vertex 3.33067e-16 -2 3
      vertex 1 -3 3
      vertex 20 -2 3
    endloop
  endfacet
  facet normal 0 0 1
    outer loop
      vertex 20 -3.5 3
      vertex 19.1 -16.1 3
      vertex 20 -17 3
    endloop
  endfacet
  facet normal 0 0 1
    outer loop
      vertex 19.1 -16.1 3
      vertex 13.5 -17 3
      vertex 20 -17 3
    endloop
  endfacet
  facet normal -0 0 1
    outer loop
      vertex 1 -16.1 3
      vertex 13.5 -17 3
      vertex 19.1 -16.1 3
    endloop
  endfacet
  facet normal 0 0 1
    outer loop
      vertex 1 -16.1 3
      vertex -2.9976e-15 -17 3
      vertex 13.5 -17 3
    endloop
  endfacet
  facet normal 0 0 1
    outer loop
      vertex 1 -3 3
      vertex -2.9976e-15 -17 3
      vertex 1 -16.1 3
    endloop
  endfacet
  facet normal 0 -1 0
    outer loop
      vertex 13.5 -17 4.28626e-16
      vertex 20 -17 3
      vertex 13.5 -17 3
    endloop
  endfacet
  facet normal 0 -1 -0
    outer loop
      vertex 20 -17 3
      vertex 13.5 -17 4.28626e-16
      vertex 20 -17 -3.67394e-16
    endloop
  endfacet
  facet normal 1 -0 0
    outer loop
      vertex 20 -17 3
      vertex 20 -3.5 -2.02067e-15
      vertex 20 -3.5 3
    endloop
  endfacet
  facet normal 1 0 0
    outer loop
      vertex 20 -3.5 -2.02067e-15
      vertex 20 -17 3
      vertex 20 -17 -3.67394e-16
    endloop
  endfacet
  facet normal -1.22465e-16 -1.22465e-16 -1
    outer loop
      vertex 13.5 -17 4.28626e-16
      vertex 7.5 -5.5 -2.44929e-16
      vertex 9.5 -5.5 -4.89859e-16
    endloop
  endfacet
  facet normal -1.22465e-16 -1.22465e-16 -1
    outer loop
      vertex 7.5 -5.5 -2.44929e-16
      vertex -3.43271e-17 -2 2.44929e-16
      vertex 7.5 -3.5 -4.89859e-16
    endloop
  endfacet
  facet normal -1.22465e-16 -1.22465e-16 -1
    outer loop
      vertex -3.365e-15 -17 2.0819e-15
      vertex 7.5 -5.5 -2.44929e-16
      vertex 13.5 -17 4.28626e-16
    endloop
  endfacet
  facet normal -1.22465e-16 -1.22465e-16 -1
    outer loop
      vertex 7.5 -5.5 -2.44929e-16
      vertex -3.365e-15 -17 2.0819e-15
      vertex -3.43271e-17 -2 2.44929e-16
    endloop
  endfacet
  facet normal -1.22465e-16 -1.22465e-16 -1
    outer loop
      vertex 13.5 -17 4.28626e-16
      vertex 20 -3.5 -2.02067e-15
      vertex 20 -17 -3.67394e-16
    endloop
  endfacet
  facet normal -1.22465e-16 -1.22465e-16 -1
    outer loop
      vertex 9.5 -5.5 -4.89859e-16
      vertex 20 -3.5 -2.02067e-15
      vertex 13.5 -17 4.28626e-16
    endloop
  endfacet
  facet normal -1.22465e-16 -1.22465e-16 -1
    outer loop
      vertex 9.5 -3.5 -7.34788e-16
      vertex 20 -3.5 -2.02067e-15
      vertex 9.5 -5.5 -4.89859e-16
    endloop
  endfacet
  facet normal -1.22465e-16 -1.22465e-16 -1
    outer loop
      vertex 20 -3.5 -2.02067e-15
      vertex 9.5 -3.5 -7.34788e-16
      vertex 20 -2 -2.20436e-15
    endloop
  endfacet
  facet normal -1.22465e-16 -1.22465e-16 -1
    outer loop
      vertex -3.43271e-17 -2 2.44929e-16
      vertex 9.5 -3.5 -7.34788e-16
      vertex 7.5 -3.5 -4.89859e-16
    endloop
  endfacet
  facet normal -1.22465e-16 -1.22465e-16 -1
    outer loop
      vertex 9.5 -3.5 -7.34788e-16
      vertex -3.43271e-17 -2 2.44929e-16
      vertex 20 -2 -2.20436e-15
    endloop
  endfacet
  facet normal -1 2.22045e-16 1.22465e-16
    outer loop
      vertex -3.365e-15 -17 2.0819e-15
      vertex 3.33067e-16 -2 3
      vertex -3.43271e-17 -2 2.44929e-16
    endloop
  endfacet
  facet normal -1 2.22045e-16 1.22465e-16
    outer loop
      vertex 3.33067e-16 -2 3
      vertex -3.365e-15 -17 2.0819e-15
      vertex -2.9976e-15 -17 3
    endloop
  endfacet
  facet normal 0 -1 0
    outer loop
      vertex -3.365e-15 -17 2.0819e-15
      vertex 13.5 -17 3
      vertex -2.9976e-15 -17 3
    endloop
  endfacet
  facet normal 0 -1 -0
    outer loop
      vertex 13.5 -17 3
      vertex -3.365e-15 -17 2.0819e-15
      vertex 13.5 -17 4.28626e-16
    endloop
  endfacet
  facet normal 1 -0 0
    outer loop
      vertex 20 -3.5 3
      vertex 20 -2 -2.20436e-15
      vertex 20 -2 3
    endloop
  endfacet
  facet normal 1 0 0
    outer loop
      vertex 20 -2 -2.20436e-15
      vertex 20 -3.5 3
      vertex 20 -3.5 -2.02067e-15
    endloop
  endfacet
  facet normal 0 1 0
    outer loop
      vertex 20 -2 3
      vertex -3.43271e-17 -2 2.44929e-16
      vertex 3.33067e-16 -2 3
    endloop
  endfacet
  facet normal -0 1 0
    outer loop
      vertex -3.43271e-17 -2 2.44929e-16
      vertex 20 -2 3
      vertex 20 -2 -2.20436e-15
    endloop
  endfacet
  facet normal 1 -0 0
    outer loop
      vertex 1 -16.1 3
      vertex 1 -3 1
      vertex 1 -3 3
    endloop
  endfacet
  facet normal 1 0 0
    outer loop
      vertex 1 -3 1
      vertex 1 -16.1 3
      vertex 1 -16.1 1
    endloop
  endfacet
  facet normal 0 0 1
    outer loop
      vertex 9.5 -5.5 1
      vertex 19.1 -3 1
      vertex 9.5 -3.5 1
    endloop
  endfacet
  facet normal -0 0 1
    outer loop
      vertex 1 -3 1
      vertex 9.5 -3.5 1
      vertex 19.1 -3 1
    endloop
  endfacet
  facet normal 0 0 1
    outer loop
      vertex 7.5 -3.5 1
      vertex 1 -3 1
      vertex 7.5 -5.5 1
    endloop
  endfacet
  facet normal 0 0 1
    outer loop
      vertex 9.5 -3.5 1
      vertex 1 -3 1
      vertex 7.5 -3.5 1
    endloop
  endfacet
  facet normal 0 0 1
    outer loop
      vertex 19.1 -3 1
      vertex 9.5 -5.5 1
      vertex 19.1 -16.1 1
    endloop
  endfacet
  facet normal 0 0 1
    outer loop
      vertex 1 -16.1 1
      vertex 9.5 -5.5 1
      vertex 7.5 -5.5 1
    endloop
  endfacet
  facet normal 0 0 1
    outer loop
      vertex 1 -16.1 1
      vertex 7.5 -5.5 1
      vertex 1 -3 1
    endloop
  endfacet
  facet normal 0 0 1
    outer loop
      vertex 9.5 -5.5 1
      vertex 1 -16.1 1
      vertex 19.1 -16.1 1
    endloop
  endfacet
  facet normal -1 0 0
    outer loop
      vertex 19.1 -16.1 1
      vertex 19.1 -3 3
      vertex 19.1 -3 1
    endloop
  endfacet
  facet normal -1 -0 0
    outer loop
      vertex 19.1 -3 3
      vertex 19.1 -16.1 1
      vertex 19.1 -16.1 3
    endloop
  endfacet
  facet normal 0 1 -0
    outer loop
      vertex 19.1 -16.1 1
      vertex 1 -16.1 3
      vertex 19.1 -16.1 3
    endloop
  endfacet
  facet normal 0 1 0
    outer loop
      vertex 1 -16.1 3
      vertex 19.1 -16.1 1
      vertex 1 -16.1 1
    endloop
  endfacet
  facet normal 0 -1 0
    outer loop
      vertex 1 -3 1
      vertex 19.1 -3 3
      vertex 1 -3 3
    endloop
  endfacet
  facet normal 0 -1 -0
    outer loop
      vertex 19.1 -3 3
      vertex 1 -3 1
      vertex 19.1 -3 1
    endloop
  endfacet
  facet normal 1 -0 0
    outer loop
      vertex 7.5 -5.5 1
      vertex 7.5 -3.5 -4.89859e-16
      vertex 7.5 -3.5 1
    endloop
  endfacet
  facet normal 1 0 0
    outer loop
      vertex 7.5 -3.5 -4.89859e-16
      vertex 7.5 -5.5 1
      vertex 7.5 -5.5 -2.44929e-16
    endloop
  endfacet
  facet normal -1 0 0
    outer loop
      vertex 9.5 -5.5 -4.89859e-16
      vertex 9.5 -3.5 1
      vertex 9.5 -3.5 -7.34788e-16
    endloop
  endfacet
  facet normal -1 -0 0
    outer loop
      vertex 9.5 -3.5 1
      vertex 9.5 -5.5 -4.89859e-16
      vertex 9.5 -5.5 1
    endloop
  endfacet
  facet normal 0 -1 0
    outer loop
      vertex 7.5 -3.5 -4.89859e-16
      vertex 9.5 -3.5 1
      vertex 7.5 -3.5 1
    endloop
  endfacet
  facet normal 0 -1 -0
    outer loop
      vertex 9.5 -3.5 1
      vertex 7.5 -3.5 -4.89859e-16
      vertex 9.5 -3.5 -7.34788e-16
    endloop
  endfacet
  facet normal 0 1 0
    outer loop
      vertex 9.5 -5.5 1
      vertex 7.5 -5.5 -2.44929e-16
      vertex 7.5 -5.5 1
    endloop
  endfacet
  facet normal -0 1 0
    outer loop
      vertex 7.5 -5.5 -2.44929e-16
      vertex 9.5 -5.5 1
      vertex 9.5 -5.5 -4.89859e-16
    endloop
  endfacet
  facet normal 1 -0 0
    outer loop
      vertex 1 1 6
      vertex 1 14.1 4.9
      vertex 1 14.1 6
    endloop
  endfacet
  facet normal 1 0 0
    outer loop
      vertex 1 14.1 4.9
      vertex 1 1 6
      vertex 1 1 4.9
    endloop
  endfacet
  facet normal -1 0 0
    outer loop
      vertex 19.1 1 4.9
      vertex 19.1 14.1 6
      vertex 19.1 14.1 4.9
    endloop
  endfacet
  facet normal -1 -0 0
    outer loop
      vertex 19.1 14.1 6
      vertex 19.1 1 4.9
      vertex 19.1 1 6
    endloop
  endfacet
  facet normal 0 1 -0
    outer loop
      vertex 6.925 1 4.9
      vertex 1 1 6
      vertex 6.925 1 6
    endloop
  endfacet
  facet normal 0 1 0
    outer loop
      vertex 1 1 6
      vertex 6.925 1 4.9
      vertex 1 1 4.9
    endloop
  endfacet
  facet normal 0 1 -0
    outer loop
      vertex 19.1 1 4.9
      vertex 13.175 1 6
      vertex 19.1 1 6
    endloop
  endfacet
  facet normal 0 1 0
    outer loop
      vertex 13.175 1 6
      vertex 19.1 1 4.9
      vertex 13.175 1 4.9
    endloop
  endfacet
  facet normal 0 -1 0
    outer loop
      vertex 1 14.1 4.9
      vertex 3.8 14.1 6
      vertex 1 14.1 6
    endloop
  endfacet
  facet normal 0 -1 -0
    outer loop
      vertex 3.8 14.1 6
      vertex 1 14.1 4.9
      vertex 3.8 14.1 4.9
    endloop
  endfacet
  facet normal 0 -1 0
    outer loop
      vertex 16.3 14.1 4.9
      vertex 19.1 14.1 6
      vertex 16.3 14.1 6
    endloop
  endfacet
  facet normal 0 -1 -0
    outer loop
      vertex 19.1 14.1 6
      vertex 16.3 14.1 4.9
      vertex 19.1 14.1 4.9
    endloop
  endfacet
  facet normal 0 0 1
    outer loop
      vertex 3.8 14.1 4.9
      vertex 3 12.5 4.9
      vertex 3.8 12.5 4.9
    endloop
  endfacet
  facet normal 0 0 1
    outer loop
      vertex 1 1 4.9
      vertex 3 12.5 4.9
      vertex 1 14.1 4.9
    endloop
  endfacet
  facet normal -0 0 1
    outer loop
      vertex 1 14.1 4.9
      vertex 3 12.5 4.9
      vertex 3.8 14.1 4.9
    endloop
  endfacet
  facet normal 0 0 1
    outer loop
      vertex 6.70108 2.27295 4.9
      vertex 6.925 1 4.9
      vertex 6.925 2.14053 4.9
    endloop
  endfacet
  facet normal 0 0 1
    outer loop
      vertex 6.37634 2.49364 4.9
      vertex 6.925 1 4.9
      vertex 6.70108 2.27295 4.9
    endloop
  endfacet
  facet normal 0 0 1
    outer loop
      vertex 6.36815 2.5 4.9
      vertex 6.925 1 4.9
      vertex 6.37634 2.49364 4.9
    endloop
  endfacet
  facet normal -0 0 1
    outer loop
      vertex 3 2.5 4.9
      vertex 6.925 1 4.9
      vertex 6.36815 2.5 4.9
    endloop
  endfacet
  facet normal 0 0 1
    outer loop
      vertex 3 2.5 4.9
      vertex 1 1 4.9
      vertex 6.925 1 4.9
    endloop
  endfacet
  facet normal 0 0 1
    outer loop
      vertex 3 12.5 4.9
      vertex 1 1 4.9
      vertex 3 2.5 4.9
    endloop
  endfacet
  facet normal 0 0 1
    outer loop
      vertex 19.1 14.1 4.9
      vertex 17 12.5 4.9
      vertex 19.1 1 4.9
    endloop
  endfacet
  facet normal -0 0 1
    outer loop
      vertex 16.3 14.1 4.9
      vertex 17 12.5 4.9
      vertex 19.1 14.1 4.9
    endloop
  endfacet
  facet normal 0 0 1
    outer loop
      vertex 17 12.5 4.9
      vertex 16.3 14.1 4.9
      vertex 16.3 12.5 4.9
    endloop
  endfacet
  facet normal -0 0 1
    outer loop
      vertex 17 2.5 4.9
      vertex 19.1 1 4.9
      vertex 17 12.5 4.9
    endloop
  endfacet
  facet normal 0 0 1
    outer loop
      vertex 13.175 1 4.9
      vertex 17 2.5 4.9
      vertex 13.7319 2.5 4.9
    endloop
  endfacet
  facet normal 0 0 1
    outer loop
      vertex 13.175 1 4.9
      vertex 13.7319 2.5 4.9
      vertex 13.7237 2.49364 4.9
    endloop
  endfacet
  facet normal 0 0 1
    outer loop
      vertex 13.175 1 4.9
      vertex 13.7237 2.49364 4.9
      vertex 13.3989 2.27295 4.9
    endloop
  endfacet
  facet normal 0 0 1
    outer loop
      vertex 13.175 1 4.9
      vertex 13.3989 2.27295 4.9
      vertex 13.175 2.14053 4.9
    endloop
  endfacet
  facet normal 0 0 1
    outer loop
      vertex 17 2.5 4.9
      vertex 13.175 1 4.9
      vertex 19.1 1 4.9
    endloop
  endfacet
  facet normal 1 -0 0
    outer loop
      vertex 3 2.5 4.9
      vertex 3 12.5 1
      vertex 3 12.5 4.9
    endloop
  endfacet
  facet normal 1 0 0
    outer loop
      vertex 3 12.5 1
      vertex 3 2.5 4.9
      vertex 3 2.5 1
    endloop
  endfacet
  facet normal -1 0 0
    outer loop
      vertex 17 2.5 1
      vertex 17 12.5 4.9
      vertex 17 12.5 1
    endloop
  endfacet
  facet normal -1 -0 0
    outer loop
      vertex 17 12.5 4.9
      vertex 17 2.5 1
      vertex 17 2.5 4.9
    endloop
  endfacet
  facet normal 0 -1 0
    outer loop
      vertex 3 12.5 4.9
      vertex 3.8 12.5 2.8
      vertex 3.8 12.5 4.9
    endloop
  endfacet
  facet normal 0 -1 0
    outer loop
      vertex 17 12.5 1
      vertex 3.8 12.5 2.8
      vertex 3 12.5 1
    endloop
  endfacet
  facet normal 0 -1 0
    outer loop
      vertex 3 12.5 1
      vertex 3.8 12.5 2.8
      vertex 3 12.5 4.9
    endloop
  endfacet
  facet normal 0 -1 0
    outer loop
      vertex 16.3 12.5 2.8
      vertex 17 12.5 4.9
      vertex 16.3 12.5 4.9
    endloop
  endfacet
  facet normal 0 -1 0
    outer loop
      vertex 16.3 12.5 2.8
      vertex 17 12.5 1
      vertex 17 12.5 4.9
    endloop
  endfacet
  facet normal 0 -1 0
    outer loop
      vertex 3.8 12.5 2.8
      vertex 17 12.5 1
      vertex 16.3 12.5 2.8
    endloop
  endfacet
  facet normal -0 0 1
    outer loop
      vertex 3 12.5 1
      vertex 17 2.5 1
      vertex 17 12.5 1
    endloop
  endfacet
  facet normal 0 0 1
    outer loop
      vertex 17 2.5 1
      vertex 3 12.5 1
      vertex 3 2.5 1
    endloop
  endfacet
  facet normal 0 1 0
    outer loop
      vertex 17 2.5 4.9
      vertex 13.7319 2.5 3
      vertex 13.7319 2.5 4.9
    endloop
  endfacet
  facet normal 0 1 0
    outer loop
      vertex 13.7319 2.5 3
      vertex 13.175 2.5 2.8
      vertex 13.175 2.5 3
    endloop
  endfacet
  facet normal 0 1 0
    outer loop
      vertex 13.175 2.5 2.8
      vertex 17 2.5 1
      vertex 6.925 2.5 2.8
    endloop
  endfacet
  facet normal 0 1 0
    outer loop
      vertex 13.7319 2.5 3
      vertex 17 2.5 1
      vertex 13.175 2.5 2.8
    endloop
  endfacet
  facet normal 0 1 -0
    outer loop
      vertex 17 2.5 1
      vertex 13.7319 2.5 3
      vertex 17 2.5 4.9
    endloop
  endfacet
  facet normal 0 1 0
    outer loop
      vertex 6.925 2.5 3
      vertex 6.925 2.5 2.8
      vertex 6.36815 2.5 3
    endloop
  endfacet
  facet normal 0 1 -0
    outer loop
      vertex 6.36815 2.5 3
      vertex 3 2.5 4.9
      vertex 6.36815 2.5 4.9
    endloop
  endfacet
  facet normal 0 1 0
    outer loop
      vertex 6.36815 2.5 3
      vertex 3 2.5 1
      vertex 3 2.5 4.9
    endloop
  endfacet
  facet normal 0 1 0
    outer loop
      vertex 6.925 2.5 2.8
      vertex 3 2.5 1
      vertex 6.36815 2.5 3
    endloop
  endfacet
  facet normal 0 1 0
    outer loop
      vertex 3 2.5 1
      vertex 6.925 2.5 2.8
      vertex 17 2.5 1
    endloop
  endfacet
  facet normal -0.509041 0.860742 0
    outer loop
      vertex 13.3989 2.27295 3
      vertex 13.175 2.14053 4.9
      vertex 13.3989 2.27295 4.9
    endloop
  endfacet
  facet normal -0.509041 0.860742 0
    outer loop
      vertex 13.175 2.14053 4.9
      vertex 13.3989 2.27295 3
      vertex 13.175 2.14053 3
    endloop
  endfacet
  facet normal -0 0 1
    outer loop
      vertex 13.175 2.5 3
      vertex 13.7237 2.49364 3
      vertex 13.7319 2.5 3
    endloop
  endfacet
  facet normal 0 0 1
    outer loop
      vertex 13.7237 2.49364 3
      vertex 13.175 2.5 3
      vertex 13.3989 2.27295 3
    endloop
  endfacet
  facet normal 0 0 1
    outer loop
      vertex 13.3989 2.27295 3
      vertex 13.175 2.5 3
      vertex 13.175 2.14053 3
    endloop
  endfacet
  facet normal 0 0 1
    outer loop
      vertex 6.925 2.5 3
      vertex 6.70108 2.27295 3
      vertex 6.925 2.14053 3
    endloop
  endfacet
  facet normal 0 0 1
    outer loop
      vertex 6.925 2.5 3
      vertex 6.37634 2.49364 3
      vertex 6.70108 2.27295 3
    endloop
  endfacet
  facet normal 0 -0 1
    outer loop
      vertex 6.37634 2.49364 3
      vertex 6.925 2.5 3
      vertex 6.36815 2.5 3
    endloop
  endfacet
  facet normal -0.612928 0.790139 0
    outer loop
      vertex 13.7319 2.5 3
      vertex 13.7237 2.49364 4.9
      vertex 13.7319 2.5 4.9
    endloop
  endfacet
  facet normal -0.612928 0.790139 0
    outer loop
      vertex 13.7237 2.49364 4.9
      vertex 13.7319 2.5 3
      vertex 13.7237 2.49364 3
    endloop
  endfacet
  facet normal 0.509042 0.860742 -0
    outer loop
      vertex 6.925 2.14053 3
      vertex 6.70108 2.27295 4.9
      vertex 6.925 2.14053 4.9
    endloop
  endfacet
  facet normal 0.509042 0.860742 0
    outer loop
      vertex 6.70108 2.27295 4.9
      vertex 6.925 2.14053 3
      vertex 6.70108 2.27295 3
    endloop
  endfacet
  facet normal -0.562084 0.82708 0
    outer loop
      vertex 13.7237 2.49364 3
      vertex 13.3989 2.27295 4.9
      vertex 13.7237 2.49364 4.9
    endloop
  endfacet
  facet normal -0.562084 0.82708 0
    outer loop
      vertex 13.3989 2.27295 4.9
      vertex 13.7237 2.49364 3
      vertex 13.3989 2.27295 3
    endloop
  endfacet
  facet normal 0.562084 0.82708 -0
    outer loop
      vertex 6.70108 2.27295 3
      vertex 6.37634 2.49364 4.9
      vertex 6.70108 2.27295 4.9
    endloop
  endfacet
  facet normal 0.562084 0.82708 0
    outer loop
      vertex 6.37634 2.49364 4.9
      vertex 6.70108 2.27295 3
      vertex 6.37634 2.49364 3
    endloop
  endfacet
  facet normal 0.612906 0.790156 -0
    outer loop
      vertex 6.37634 2.49364 3
      vertex 6.36815 2.5 4.9
      vertex 6.37634 2.49364 4.9
    endloop
  endfacet
  facet normal 0.612906 0.790156 0
    outer loop
      vertex 6.36815 2.5 4.9
      vertex 6.37634 2.49364 3
      vertex 6.36815 2.5 3
    endloop
  endfacet
  facet normal 0 0 1
    outer loop
      vertex 3.8 15 6
      vertex 1 14.1 6
      vertex 3.8 14.1 6
    endloop
  endfacet
  facet normal 0 0 1
    outer loop
      vertex 1 14.1 6
      vertex 5.72205e-07 1.5 6
      vertex 1 1 6
    endloop
  endfacet
  facet normal -0 0 1
    outer loop
      vertex 2.9976e-15 15 6
      vertex 1 14.1 6
      vertex 3.8 15 6
    endloop
  endfacet
  facet normal 0 0 1
    outer loop
      vertex 2.46519e-32 1.5 6
      vertex 1 14.1 6
      vertex 2.9976e-15 15 6
    endloop
  endfacet
  facet normal 0 0 1
    outer loop
      vertex 1 14.1 6
      vertex 2.46519e-32 1.5 6
      vertex 5.72205e-07 1.5 6
    endloop
  endfacet
  facet normal -0 0 1
    outer loop
      vertex 1 1 6
      vertex 6.925 -9.093e-16 6
      vertex 6.925 1 6
    endloop
  endfacet
  facet normal 0 0 1
    outer loop
      vertex 1 1 6
      vertex 5.72205e-07 -6.12324e-17 6
      vertex 6.925 -9.093e-16 6
    endloop
  endfacet
  facet normal 0 0 1
    outer loop
      vertex 5.72205e-07 -6.12324e-17 6
      vertex 1 1 6
      vertex 5.72205e-07 1.5 6
    endloop
  endfacet
  facet normal 0 0 1
    outer loop
      vertex 19.1 1 6
      vertex 20 15 6
      vertex 19.1 14.1 6
    endloop
  endfacet
  facet normal -0 0 1
    outer loop
      vertex 16.3 15 6
      vertex 19.1 14.1 6
      vertex 20 15 6
    endloop
  endfacet
  facet normal 0 0 1
    outer loop
      vertex 19.1 14.1 6
      vertex 16.3 15 6
      vertex 16.3 14.1 6
    endloop
  endfacet
  facet normal 0 0 1
    outer loop
      vertex 20 15 6
      vertex 19.1 1 6
      vertex 20 -2.51053e-15 6
    endloop
  endfacet
  facet normal 0 0 1
    outer loop
      vertex 13.175 -1.6747e-15 6
      vertex 19.1 1 6
      vertex 13.175 1 6
    endloop
  endfacet
  facet normal 0 0 1
    outer loop
      vertex 19.1 1 6
      vertex 13.175 -1.6747e-15 6
      vertex 20 -2.51053e-15 6
    endloop
  endfacet
  facet normal 0 1 0
    outer loop
      vertex 6.5 15 2.8
      vertex 6.5 15 0
      vertex 3.8 15 2.8
    endloop
  endfacet
  facet normal 0 1 -0
    outer loop
      vertex 3.8 15 2.8
      vertex 2.9976e-15 15 6
      vertex 3.8 15 6
    endloop
  endfacet
  facet normal 0 1 0
    outer loop
      vertex 2.9976e-15 15 0
      vertex 3.8 15 2.8
      vertex 6.5 15 0
    endloop
  endfacet
  facet normal 0 1 0
    outer loop
      vertex 3.8 15 2.8
      vertex 2.9976e-15 15 0
      vertex 2.9976e-15 15 6
    endloop
  endfacet
  facet normal 0 0 -1
    outer loop
      vertex 20 -2.51053e-15 0
      vertex 6.5 15 0
      vertex 20 15 0
    endloop
  endfacet
  facet normal 0 0 -1
    outer loop
      vertex 5.72205e-07 1.5 0
      vertex 20 -2.51053e-15 0
      vertex 5.72205e-07 -6.12324e-17 0
    endloop
  endfacet
  facet normal 0 0 -1
    outer loop
      vertex 20 -2.51053e-15 0
      vertex 5.72205e-07 1.5 0
      vertex 6.5 15 0
    endloop
  endfacet
  facet normal 0 0 -1
    outer loop
      vertex 5.72205e-07 1.5 0
      vertex 2.9976e-15 15 0
      vertex 6.5 15 0
    endloop
  endfacet
  facet normal 0 -0 -1
    outer loop
      vertex 2.9976e-15 15 0
      vertex 5.72205e-07 1.5 0
      vertex 2.46519e-32 1.5 0
    endloop
  endfacet
  facet normal -1 2.22045e-16 0
    outer loop
      vertex 2.46519e-32 1.5 0
      vertex 2.9976e-15 15 6
      vertex 2.9976e-15 15 0
    endloop
  endfacet
  facet normal -1 2.22045e-16 0
    outer loop
      vertex 2.9976e-15 15 6
      vertex 2.46519e-32 1.5 0
      vertex 2.46519e-32 1.5 6
    endloop
  endfacet
  facet normal 1 -0 0
    outer loop
      vertex 20 -2.51053e-15 6
      vertex 20 15 0
      vertex 20 15 6
    endloop
  endfacet
  facet normal 1 0 0
    outer loop
      vertex 20 15 0
      vertex 20 -2.51053e-15 6
      vertex 20 -2.51053e-15 0
    endloop
  endfacet
  facet normal 0 -1 0
    outer loop
      vertex 2.46519e-32 1.5 0
      vertex 5.72205e-07 1.5 6
      vertex 2.46519e-32 1.5 6
    endloop
  endfacet
  facet normal 0 -1 -0
    outer loop
      vertex 5.72205e-07 1.5 6
      vertex 2.46519e-32 1.5 0
      vertex 5.72205e-07 1.5 0
    endloop
  endfacet
  facet normal 0 1 0
    outer loop
      vertex 20 15 6
      vertex 16.3 15 2.8
      vertex 16.3 15 6
    endloop
  endfacet
  facet normal 0 1 -0
    outer loop
      vertex 20 15 0
      vertex 16.3 15 2.8
      vertex 20 15 6
    endloop
  endfacet
  facet normal 0 1 0
    outer loop
      vertex 6.5 15 0
      vertex 16.3 15 2.8
      vertex 20 15 0
    endloop
  endfacet
  facet normal 0 1 0
    outer loop
      vertex 16.3 15 2.8
      vertex 6.5 15 0
      vertex 6.5 15 2.8
    endloop
  endfacet
  facet normal -1 0 0
    outer loop
      vertex 5.72205e-07 -6.12324e-17 0
      vertex 5.72205e-07 1.5 6
      vertex 5.72205e-07 1.5 0
    endloop
  endfacet
  facet normal -1 -0 0
    outer loop
      vertex 5.72205e-07 1.5 6
      vertex 5.72205e-07 -6.12324e-17 0
      vertex 5.72205e-07 -6.12324e-17 6
    endloop
  endfacet
  facet normal -1.22465e-16 -1 0
    outer loop
      vertex 5.72205e-07 -6.12324e-17 6
      vertex 6.925 -9.093e-16 2.8
      vertex 6.925 -9.093e-16 6
    endloop
  endfacet
  facet normal -1.22465e-16 -1 1.57953e-23
    outer loop
      vertex 6.925 -9.093e-16 2.8
      vertex 5.72205e-07 -6.12324e-17 0
      vertex 13.175 -1.6747e-15 2.8
    endloop
  endfacet
  facet normal -1.22465e-16 -1 0
    outer loop
      vertex 5.72205e-07 -6.12324e-17 0
      vertex 6.925 -9.093e-16 2.8
      vertex 5.72205e-07 -6.12324e-17 6
    endloop
  endfacet
  facet normal -1.22465e-16 -1 0
    outer loop
      vertex 13.175 -1.6747e-15 2.8
      vertex 20 -2.51053e-15 6
      vertex 13.175 -1.6747e-15 6
    endloop
  endfacet
  facet normal -1.22465e-16 -1 0
    outer loop
      vertex 13.175 -1.6747e-15 2.8
      vertex 20 -2.51053e-15 0
      vertex 20 -2.51053e-15 6
    endloop
  endfacet
  facet normal -1.22465e-16 -1 1.85812e-23
    outer loop
      vertex 20 -2.51053e-15 0
      vertex 13.175 -1.6747e-15 2.8
      vertex 5.72205e-07 -6.12324e-17 0
    endloop
  endfacet
  facet normal 1 0 0
    outer loop
      vertex 3.8 14.1 4.9
      vertex 3.8 15 6
      vertex 3.8 14.1 6
    endloop
  endfacet
  facet normal 1 0 0
    outer loop
      vertex 3.8 15 6
      vertex 3.8 14.1 4.9
      vertex 3.8 15 2.8
    endloop
  endfacet
  facet normal 1 0 0
    outer loop
      vertex 3.8 12.5 2.8
      vertex 3.8 14.1 4.9
      vertex 3.8 12.5 4.9
    endloop
  endfacet
  facet normal 1 0 0
    outer loop
      vertex 3.8 14.1 4.9
      vertex 3.8 12.5 2.8
      vertex 3.8 15 2.8
    endloop
  endfacet
  facet normal -1 0 0
    outer loop
      vertex 16.3 15 2.8
      vertex 16.3 14.1 4.9
      vertex 16.3 15 6
    endloop
  endfacet
  facet normal -1 0 0
    outer loop
      vertex 16.3 12.5 2.8
      vertex 16.3 14.1 4.9
      vertex 16.3 15 2.8
    endloop
  endfacet
  facet normal -1 -0 0
    outer loop
      vertex 16.3 14.1 4.9
      vertex 16.3 12.5 2.8
      vertex 16.3 12.5 4.9
    endloop
  endfacet
  facet normal -1 -0 0
    outer loop
      vertex 16.3 15 6
      vertex 16.3 14.1 4.9
      vertex 16.3 14.1 6
    endloop
  endfacet
  facet normal -0 0 1
    outer loop
      vertex 6.5 15 2.8
      vertex 16.3 12.5 2.8
      vertex 16.3 15 2.8
    endloop
  endfacet
  facet normal 0 0 1
    outer loop
      vertex 3.8 12.5 2.8
      vertex 6.5 15 2.8
      vertex 3.8 15 2.8
    endloop
  endfacet
  facet normal 0 0 1
    outer loop
      vertex 6.5 15 2.8
      vertex 3.8 12.5 2.8
      vertex 16.3 12.5 2.8
    endloop
  endfacet
  facet normal 1 0 0
    outer loop
      vertex 6.925 1 6
      vertex 6.925 -9.093e-16 6
      vertex 6.925 1 4.9
    endloop
  endfacet
  facet normal 1 0 0
    outer loop
      vertex 6.925 2.14053 4.9
      vertex 6.925 1 4.9
      vertex 6.925 2.14053 3
    endloop
  endfacet
  facet normal 1 -0 0
    outer loop
      vertex 6.925 2.14053 3
      vertex 6.925 2.5 2.8
      vertex 6.925 2.5 3
    endloop
  endfacet
  facet normal 1 0 0
    outer loop
      vertex 6.925 -9.093e-16 2.8
      vertex 6.925 1 4.9
      vertex 6.925 -9.093e-16 6
    endloop
  endfacet
  facet normal 1 0 0
    outer loop
      vertex 6.925 2.14053 3
      vertex 6.925 -9.093e-16 2.8
      vertex 6.925 2.5 2.8
    endloop
  endfacet
  facet normal 1 0 0
    outer loop
      vertex 6.925 1 4.9
      vertex 6.925 -9.093e-16 2.8
      vertex 6.925 2.14053 3
    endloop
  endfacet
  facet normal -1 0 0
    outer loop
      vertex 13.175 2.5 2.8
      vertex 13.175 2.14053 3
      vertex 13.175 2.5 3
    endloop
  endfacet
  facet normal -1 0 0
    outer loop
      vertex 13.175 2.14053 3
      vertex 13.175 1 4.9
      vertex 13.175 2.14053 4.9
    endloop
  endfacet
  facet normal -1 0 0
    outer loop
      vertex 13.175 -1.6747e-15 2.8
      vertex 13.175 2.14053 3
      vertex 13.175 2.5 2.8
    endloop
  endfacet
  facet normal -1 0 0
    outer loop
      vertex 13.175 -1.6747e-15 2.8
      vertex 13.175 1 4.9
      vertex 13.175 2.14053 3
    endloop
  endfacet
  facet normal -1 0 0
    outer loop
      vertex 13.175 -1.6747e-15 6
      vertex 13.175 1 4.9
      vertex 13.175 -1.6747e-15 2.8
    endloop
  endfacet
  facet normal -1 0 0
    outer loop
      vertex 13.175 1 4.9
      vertex 13.175 -1.6747e-15 6
      vertex 13.175 1 6
    endloop
  endfacet
  facet normal -0 0 1
    outer loop
      vertex 6.925 2.5 2.8
      vertex 13.175 -1.6747e-15 2.8
      vertex 13.175 2.5 2.8
    endloop
  endfacet
  facet normal 0 0 1
    outer loop
      vertex 13.175 -1.6747e-15 2.8
      vertex 6.925 2.5 2.8
      vertex 6.925 -9.093e-16 2.8
    endloop
  endfacet
endsolid OpenSCAD_Model
