solid OpenSCAD_Model
  facet normal 0 0 1
    outer loop
      vertex 1 -3 3
      vertex -2.66454e-15 -15.5 3
      vertex 0 -15.5 3
    endloop
  endfacet
  facet normal -0 0 1
    outer loop
      vertex 19 -3 3
      vertex 20 -3.5 3
      vertex 20 -2 3
    endloop
  endfacet
  facet normal 0 0 1
    outer loop
      vertex 19 -16 3
      vertex 20 -3.5 3
      vertex 19 -3 3
    endloop
  endfacet
  facet normal 0 0 1
    outer loop
      vertex 20 -2 3
      vertex 1 -3 3
      vertex 19 -3 3
    endloop
  endfacet
  facet normal 0 0 1
    outer loop
      vertex -2.66454e-15 -15.5 3
      vertex 1 -3 3
      vertex 3.33067e-16 -2 3
    endloop
  endfacet
  facet normal -0 0 1
    outer loop
      vertex 3.33067e-16 -2 3
      vertex 1 -3 3
      vertex 20 -2 3
    endloop
  endfacet
  facet normal 0 0 1
    outer loop
      vertex 20 -3.5 3
      vertex 19 -16 3
      vertex 20 -17 3
    endloop
  endfacet
  facet normal 0 0 1
    outer loop
      vertex 19 -16 3
      vertex 13.5 -17 3
      vertex 20 -17 3
    endloop
  endfacet
  facet normal -0 0 1
    outer loop
      vertex 1 -16 3
      vertex 13.5 -17 3
      vertex 19 -16 3
    endloop
  endfacet
  facet normal 0 0 1
    outer loop
      vertex 1 -3 3
      vertex 0 -15.5 3
      vertex 1 -16 3
    endloop
  endfacet
  facet normal 0 0 1
    outer loop
      vertex 1 -16 3
      vertex 0 -17 3
      vertex 13.5 -17 3
    endloop
  endfacet
  facet normal 0 0 1
    outer loop
      vertex 0 -17 3
      vertex 1 -16 3
      vertex 0 -15.5 3
    endloop
  endfacet
  facet normal -1 1.49976e-32 1.22465e-16
    outer loop
      vertex -3.67394e-16 -17 2.0819e-15
      vertex 0 -15.5 3
      vertex -3.67394e-16 -15.5 1.8982e-15
    endloop
  endfacet
  facet normal -1 0 1.22465e-16
    outer loop
      vertex 0 -15.5 3
      vertex -3.67394e-16 -17 2.0819e-15
      vertex 0 -17 3
    endloop
  endfacet
  facet normal 0 -1 0
    outer loop
      vertex -3.67394e-16 -17 2.0819e-15
      vertex 13.5 -17 3
      vertex 0 -17 3
    endloop
  endfacet
  facet normal 0 -1 -0
    outer loop
      vertex 13.5 -17 3
      vertex -3.67394e-16 -17 2.0819e-15
      vertex 13.5 -17 4.28626e-16
    endloop
  endfacet
  facet normal -1.22465e-16 -1.22465e-16 -1
    outer loop
      vertex 13.5 -17 4.28626e-16
      vertex 7.5 -5.5 -2.44929e-16
      vertex 9.5 -5.5 -4.89859e-16
    endloop
  endfacet
  facet normal -1.22465e-16 -1.22465e-16 -1
    outer loop
      vertex 7.5 -5.5 -2.44929e-16
      vertex -3.43271e-17 -2 2.44929e-16
      vertex 7.5 -3.5 -4.89859e-16
    endloop
  endfacet
  facet normal -1.22465e-16 -1.22465e-16 -1
    outer loop
      vertex -3.67394e-16 -15.5 1.8982e-15
      vertex 7.5 -5.5 -2.44929e-16
      vertex 13.5 -17 4.28626e-16
    endloop
  endfacet
  facet normal -1.22465e-16 -1.22465e-16 -1
    outer loop
      vertex -3.67394e-16 -15.5 1.8982e-15
      vertex 13.5 -17 4.28626e-16
      vertex -3.67394e-16 -17 2.0819e-15
    endloop
  endfacet
  facet normal -1.22465e-16 -1.22465e-16 -1
    outer loop
      vertex 7.5 -5.5 -2.44929e-16
      vertex -3.67394e-16 -15.5 1.8982e-15
      vertex -3.43271e-17 -2 2.44929e-16
    endloop
  endfacet
  facet normal 0 -1.22465e-16 -1
    outer loop
      vertex -3.43271e-17 -2 2.44929e-16
      vertex -3.67394e-16 -15.5 1.8982e-15
      vertex -3.03193e-15 -15.5 1.8982e-15
    endloop
  endfacet
  facet normal -1.22465e-16 -1.22465e-16 -1
    outer loop
      vertex 13.5 -17 4.28626e-16
      vertex 20 -3.5 -2.02067e-15
      vertex 20 -17 -3.67394e-16
    endloop
  endfacet
  facet normal -1.22465e-16 -1.22465e-16 -1
    outer loop
      vertex 9.5 -5.5 -4.89859e-16
      vertex 20 -3.5 -2.02067e-15
      vertex 13.5 -17 4.28626e-16
    endloop
  endfacet
  facet normal -1.22465e-16 -1.22465e-16 -1
    outer loop
      vertex 9.5 -3.5 -7.34788e-16
      vertex 20 -3.5 -2.02067e-15
      vertex 9.5 -5.5 -4.89859e-16
    endloop
  endfacet
  facet normal -1.22465e-16 -1.22465e-16 -1
    outer loop
      vertex 20 -3.5 -2.02067e-15
      vertex 9.5 -3.5 -7.34788e-16
      vertex 20 -2 -2.20436e-15
    endloop
  endfacet
  facet normal -1.22465e-16 -1.22465e-16 -1
    outer loop
      vertex -3.43271e-17 -2 2.44929e-16
      vertex 9.5 -3.5 -7.34788e-16
      vertex 7.5 -3.5 -4.89859e-16
    endloop
  endfacet
  facet normal -1.22465e-16 -1.22465e-16 -1
    outer loop
      vertex 9.5 -3.5 -7.34788e-16
      vertex -3.43271e-17 -2 2.44929e-16
      vertex 20 -2 -2.20436e-15
    endloop
  endfacet
  facet normal 1 -0 0
    outer loop
      vertex 20 -3.5 3
      vertex 20 -2 -2.20436e-15
      vertex 20 -2 3
    endloop
  endfacet
  facet normal 1 0 0
    outer loop
      vertex 20 -2 -2.20436e-15
      vertex 20 -3.5 3
      vertex 20 -3.5 -2.02067e-15
    endloop
  endfacet
  facet normal 0 1 0
    outer loop
      vertex 20 -2 3
      vertex -3.43271e-17 -2 2.44929e-16
      vertex 3.33067e-16 -2 3
    endloop
  endfacet
  facet normal -0 1 0
    outer loop
      vertex -3.43271e-17 -2 2.44929e-16
      vertex 20 -2 3
      vertex 20 -2 -2.20436e-15
    endloop
  endfacet
  facet normal 0 -1 0
    outer loop
      vertex -3.03193e-15 -15.5 1.8982e-15
      vertex 0 -15.5 3
      vertex -2.66454e-15 -15.5 3
    endloop
  endfacet
  facet normal 0 -1 0
    outer loop
      vertex 0 -15.5 3
      vertex -3.03193e-15 -15.5 1.8982e-15
      vertex -3.67394e-16 -15.5 1.8982e-15
    endloop
  endfacet
  facet normal 0 -1 0
    outer loop
      vertex 13.5 -17 4.28626e-16
      vertex 20 -17 3
      vertex 13.5 -17 3
    endloop
  endfacet
  facet normal 0 -1 -0
    outer loop
      vertex 20 -17 3
      vertex 13.5 -17 4.28626e-16
      vertex 20 -17 -3.67394e-16
    endloop
  endfacet
  facet normal 1 -0 0
    outer loop
      vertex 20 -17 3
      vertex 20 -3.5 -2.02067e-15
      vertex 20 -3.5 3
    endloop
  endfacet
  facet normal 1 0 0
    outer loop
      vertex 20 -3.5 -2.02067e-15
      vertex 20 -17 3
      vertex 20 -17 -3.67394e-16
    endloop
  endfacet
  facet normal -1 2.22045e-16 1.22465e-16
    outer loop
      vertex -3.03193e-15 -15.5 1.8982e-15
      vertex 3.33067e-16 -2 3
      vertex -3.43271e-17 -2 2.44929e-16
    endloop
  endfacet
  facet normal -1 2.22045e-16 1.22465e-16
    outer loop
      vertex 3.33067e-16 -2 3
      vertex -3.03193e-15 -15.5 1.8982e-15
      vertex -2.66454e-15 -15.5 3
    endloop
  endfacet
  facet normal 1 -0 0
    outer loop
      vertex 1 -16 3
      vertex 1 -3 1
      vertex 1 -3 3
    endloop
  endfacet
  facet normal 1 0 0
    outer loop
      vertex 1 -3 1
      vertex 1 -16 3
      vertex 1 -16 1
    endloop
  endfacet
  facet normal 0 0 1
    outer loop
      vertex 9.5 -5.5 1
      vertex 19 -3 1
      vertex 9.5 -3.5 1
    endloop
  endfacet
  facet normal -0 0 1
    outer loop
      vertex 1 -3 1
      vertex 9.5 -3.5 1
      vertex 19 -3 1
    endloop
  endfacet
  facet normal 0 0 1
    outer loop
      vertex 7.5 -3.5 1
      vertex 1 -3 1
      vertex 7.5 -5.5 1
    endloop
  endfacet
  facet normal 0 0 1
    outer loop
      vertex 9.5 -3.5 1
      vertex 1 -3 1
      vertex 7.5 -3.5 1
    endloop
  endfacet
  facet normal 0 0 1
    outer loop
      vertex 19 -3 1
      vertex 9.5 -5.5 1
      vertex 19 -16 1
    endloop
  endfacet
  facet normal 0 0 1
    outer loop
      vertex 1 -16 1
      vertex 9.5 -5.5 1
      vertex 7.5 -5.5 1
    endloop
  endfacet
  facet normal 0 0 1
    outer loop
      vertex 1 -16 1
      vertex 7.5 -5.5 1
      vertex 1 -3 1
    endloop
  endfacet
  facet normal 0 0 1
    outer loop
      vertex 9.5 -5.5 1
      vertex 1 -16 1
      vertex 19 -16 1
    endloop
  endfacet
  facet normal -1 0 0
    outer loop
      vertex 19 -16 1
      vertex 19 -3 3
      vertex 19 -3 1
    endloop
  endfacet
  facet normal -1 -0 0
    outer loop
      vertex 19 -3 3
      vertex 19 -16 1
      vertex 19 -16 3
    endloop
  endfacet
  facet normal 0 1 -0
    outer loop
      vertex 19 -16 1
      vertex 1 -16 3
      vertex 19 -16 3
    endloop
  endfacet
  facet normal 0 1 0
    outer loop
      vertex 1 -16 3
      vertex 19 -16 1
      vertex 1 -16 1
    endloop
  endfacet
  facet normal 0 -1 0
    outer loop
      vertex 1 -3 1
      vertex 19 -3 3
      vertex 1 -3 3
    endloop
  endfacet
  facet normal 0 -1 -0
    outer loop
      vertex 19 -3 3
      vertex 1 -3 1
      vertex 19 -3 1
    endloop
  endfacet
  facet normal 1 -0 0
    outer loop
      vertex 7.5 -5.5 1
      vertex 7.5 -3.5 -4.89859e-16
      vertex 7.5 -3.5 1
    endloop
  endfacet
  facet normal 1 0 0
    outer loop
      vertex 7.5 -3.5 -4.89859e-16
      vertex 7.5 -5.5 1
      vertex 7.5 -5.5 -2.44929e-16
    endloop
  endfacet
  facet normal -1 0 0
    outer loop
      vertex 9.5 -5.5 -4.89859e-16
      vertex 9.5 -3.5 1
      vertex 9.5 -3.5 -7.34788e-16
    endloop
  endfacet
  facet normal -1 -0 0
    outer loop
      vertex 9.5 -3.5 1
      vertex 9.5 -5.5 -4.89859e-16
      vertex 9.5 -5.5 1
    endloop
  endfacet
  facet normal 0 1 0
    outer loop
      vertex 9.5 -5.5 1
      vertex 7.5 -5.5 -2.44929e-16
      vertex 7.5 -5.5 1
    endloop
  endfacet
  facet normal -0 1 0
    outer loop
      vertex 7.5 -5.5 -2.44929e-16
      vertex 9.5 -5.5 1
      vertex 9.5 -5.5 -4.89859e-16
    endloop
  endfacet
  facet normal 0 -1 0
    outer loop
      vertex 7.5 -3.5 -4.89859e-16
      vertex 9.5 -3.5 1
      vertex 7.5 -3.5 1
    endloop
  endfacet
  facet normal 0 -1 -0
    outer loop
      vertex 9.5 -3.5 1
      vertex 7.5 -3.5 -4.89859e-16
      vertex 9.5 -3.5 -7.34788e-16
    endloop
  endfacet
  facet normal -0 0 1
    outer loop
      vertex 19 14 5
      vertex 20 13.5 5
      vertex 20 15 5
    endloop
  endfacet
  facet normal 0 0 1
    outer loop
      vertex 19 1 5
      vertex 20 13.5 5
      vertex 19 14 5
    endloop
  endfacet
  facet normal -0 0 1
    outer loop
      vertex 6.5 15 5
      vertex 19 14 5
      vertex 20 15 5
    endloop
  endfacet
  facet normal 0 0 1
    outer loop
      vertex 6.5 15 5
      vertex 1 14 5
      vertex 19 14 5
    endloop
  endfacet
  facet normal 0 0 1
    outer loop
      vertex -1.35963e-32 1.5 5
      vertex 1 14 5
      vertex 2.9976e-15 15 5
    endloop
  endfacet
  facet normal -0 0 1
    outer loop
      vertex 2.9976e-15 15 5
      vertex 1 14 5
      vertex 6.5 15 5
    endloop
  endfacet
  facet normal 0 0 1
    outer loop
      vertex 20 13.5 5
      vertex 19 1 5
      vertex 20 -2.51053e-15 5
    endloop
  endfacet
  facet normal -0 0 1
    outer loop
      vertex 1 1 5
      vertex 20 -2.51053e-15 5
      vertex 19 1 5
    endloop
  endfacet
  facet normal 0 0 1
    outer loop
      vertex 1 14 5
      vertex -1.35963e-32 1.5 5
      vertex 1 1 5
    endloop
  endfacet
  facet normal 0 0 1
    outer loop
      vertex 1 1 5
      vertex -1.83697e-16 -6.12323e-17 5
      vertex 20 -2.51053e-15 5
    endloop
  endfacet
  facet normal 0 0 1
    outer loop
      vertex -1.83697e-16 -6.12323e-17 5
      vertex 1 1 5
      vertex -1.35963e-32 1.5 5
    endloop
  endfacet
  facet normal 1 -0 0
    outer loop
      vertex 20 13.5 5
      vertex 20 15 0
      vertex 20 15 5
    endloop
  endfacet
  facet normal 1 0 0
    outer loop
      vertex 20 15 0
      vertex 20 13.5 5
      vertex 20 13.5 0
    endloop
  endfacet
  facet normal 0 0 -1
    outer loop
      vertex 6.5 15 0
      vertex 20 13.5 0
      vertex 20 -2.51053e-15 0
    endloop
  endfacet
  facet normal 0 0 -1
    outer loop
      vertex 20 13.5 0
      vertex 6.5 15 0
      vertex 20 15 0
    endloop
  endfacet
  facet normal 0 0 -1
    outer loop
      vertex -1.35963e-32 1.5 0
      vertex 6.5 15 0
      vertex 20 -2.51053e-15 0
    endloop
  endfacet
  facet normal -0 0 -1
    outer loop
      vertex 6.5 15 0
      vertex -1.35963e-32 1.5 0
      vertex 2.9976e-15 15 0
    endloop
  endfacet
  facet normal 0 -0 -1
    outer loop
      vertex -1.35963e-32 1.5 0
      vertex 20 -2.51053e-15 0
      vertex -1.83697e-16 -6.12323e-17 0
    endloop
  endfacet
  facet normal 0 1 -0
    outer loop
      vertex 20 15 0
      vertex 6.5 15 5
      vertex 20 15 5
    endloop
  endfacet
  facet normal 0 1 0
    outer loop
      vertex 6.5 15 5
      vertex 20 15 0
      vertex 6.5 15 0
    endloop
  endfacet
  facet normal -1 1.22465e-16 0
    outer loop
      vertex -1.83697e-16 -6.12323e-17 0
      vertex -1.35963e-32 1.5 5
      vertex -1.35963e-32 1.5 0
    endloop
  endfacet
  facet normal -1 1.22465e-16 0
    outer loop
      vertex -1.35963e-32 1.5 5
      vertex -1.83697e-16 -6.12323e-17 0
      vertex -1.83697e-16 -6.12323e-17 5
    endloop
  endfacet
  facet normal -1.22465e-16 -1 0
    outer loop
      vertex -1.83697e-16 -6.12323e-17 0
      vertex 20 -2.51053e-15 5
      vertex -1.83697e-16 -6.12323e-17 5
    endloop
  endfacet
  facet normal -1.22465e-16 -1 -0
    outer loop
      vertex 20 -2.51053e-15 5
      vertex -1.83697e-16 -6.12323e-17 0
      vertex 20 -2.51053e-15 0
    endloop
  endfacet
  facet normal 0 1 -0
    outer loop
      vertex 6.5 15 0
      vertex 2.9976e-15 15 5
      vertex 6.5 15 5
    endloop
  endfacet
  facet normal 0 1 0
    outer loop
      vertex 2.9976e-15 15 5
      vertex 6.5 15 0
      vertex 2.9976e-15 15 0
    endloop
  endfacet
  facet normal -1 2.22045e-16 0
    outer loop
      vertex -1.35963e-32 1.5 0
      vertex 2.9976e-15 15 5
      vertex 2.9976e-15 15 0
    endloop
  endfacet
  facet normal -1 2.22045e-16 0
    outer loop
      vertex 2.9976e-15 15 5
      vertex -1.35963e-32 1.5 0
      vertex -1.35963e-32 1.5 5
    endloop
  endfacet
  facet normal 1 -0 0
    outer loop
      vertex 20 -2.51053e-15 5
      vertex 20 13.5 0
      vertex 20 13.5 5
    endloop
  endfacet
  facet normal 1 0 0
    outer loop
      vertex 20 13.5 0
      vertex 20 -2.51053e-15 5
      vertex 20 -2.51053e-15 0
    endloop
  endfacet
  facet normal 1 -0 0
    outer loop
      vertex 1 1 5
      vertex 1 14 3.9
      vertex 1 14 5
    endloop
  endfacet
  facet normal 1 0 0
    outer loop
      vertex 1 14 3.9
      vertex 1 1 5
      vertex 1 1 3.9
    endloop
  endfacet
  facet normal -1 0 0
    outer loop
      vertex 19 1 3.9
      vertex 19 14 5
      vertex 19 14 3.9
    endloop
  endfacet
  facet normal -1 -0 0
    outer loop
      vertex 19 14 5
      vertex 19 1 3.9
      vertex 19 1 5
    endloop
  endfacet
  facet normal 0 -1 0
    outer loop
      vertex 1 14 3.9
      vertex 19 14 5
      vertex 1 14 5
    endloop
  endfacet
  facet normal 0 -1 -0
    outer loop
      vertex 19 14 5
      vertex 1 14 3.9
      vertex 19 14 3.9
    endloop
  endfacet
  facet normal 0 1 -0
    outer loop
      vertex 19 1 3.9
      vertex 1 1 5
      vertex 19 1 5
    endloop
  endfacet
  facet normal 0 1 0
    outer loop
      vertex 1 1 5
      vertex 19 1 3.9
      vertex 1 1 3.9
    endloop
  endfacet
  facet normal 0 0 1
    outer loop
      vertex 19 14 3.9
      vertex 16.5 12 3.9
      vertex 19 1 3.9
    endloop
  endfacet
  facet normal -0 0 1
    outer loop
      vertex 13.6737 12.5564 3.9
      vertex 16.5 12 3.9
      vertex 19 14 3.9
    endloop
  endfacet
  facet normal 0 0 1
    outer loop
      vertex 16.5 12 3.9
      vertex 14.2784 12.0561 3.9
      vertex 14.3345 12 3.9
    endloop
  endfacet
  facet normal 0 0 1
    outer loop
      vertex 16.5 12 3.9
      vertex 13.9839 12.3157 3.9
      vertex 14.2784 12.0561 3.9
    endloop
  endfacet
  facet normal 0 0 1
    outer loop
      vertex 16.5 12 3.9
      vertex 13.6737 12.5564 3.9
      vertex 13.9839 12.3157 3.9
    endloop
  endfacet
  facet normal 0 0 1
    outer loop
      vertex 19 14 3.9
      vertex 13.3489 12.777 3.9
      vertex 13.6737 12.5564 3.9
    endloop
  endfacet
  facet normal 0 0 1
    outer loop
      vertex 19 14 3.9
      vertex 13.011 12.9769 3.9
      vertex 13.3489 12.777 3.9
    endloop
  endfacet
  facet normal 0 0 1
    outer loop
      vertex 19 14 3.9
      vertex 12.6611 13.1552 3.9
      vertex 13.011 12.9769 3.9
    endloop
  endfacet
  facet normal 0 0 1
    outer loop
      vertex 19 14 3.9
      vertex 12.3008 13.3111 3.9
      vertex 12.6611 13.1552 3.9
    endloop
  endfacet
  facet normal 0 0 1
    outer loop
      vertex 19 14 3.9
      vertex 11.9314 13.4441 3.9
      vertex 12.3008 13.3111 3.9
    endloop
  endfacet
  facet normal 0 0 1
    outer loop
      vertex 19 14 3.9
      vertex 11.5543 13.5536 3.9
      vertex 11.9314 13.4441 3.9
    endloop
  endfacet
  facet normal 0 0 1
    outer loop
      vertex 19 14 3.9
      vertex 11.1711 13.6393 3.9
      vertex 11.5543 13.5536 3.9
    endloop
  endfacet
  facet normal 0 0 1
    outer loop
      vertex 19 14 3.9
      vertex 10.7833 13.7007 3.9
      vertex 11.1711 13.6393 3.9
    endloop
  endfacet
  facet normal 0 0 1
    outer loop
      vertex 19 14 3.9
      vertex 10.3924 13.7377 3.9
      vertex 10.7833 13.7007 3.9
    endloop
  endfacet
  facet normal 0 0 1
    outer loop
      vertex 19 14 3.9
      vertex 10 13.75 3.9
      vertex 10.3924 13.7377 3.9
    endloop
  endfacet
  facet normal 0 0 1
    outer loop
      vertex 5.72158 12.0561 3.9
      vertex 3 12 3.9
      vertex 5.66553 12 3.9
    endloop
  endfacet
  facet normal 0 0 1
    outer loop
      vertex 6.0161 12.3157 3.9
      vertex 3 12 3.9
      vertex 5.72158 12.0561 3.9
    endloop
  endfacet
  facet normal 0 0 1
    outer loop
      vertex 6.32634 12.5564 3.9
      vertex 3 12 3.9
      vertex 6.0161 12.3157 3.9
    endloop
  endfacet
  facet normal 0 0 1
    outer loop
      vertex 1 14 3.9
      vertex 6.32634 12.5564 3.9
      vertex 6.65108 12.777 3.9
    endloop
  endfacet
  facet normal 0 0 1
    outer loop
      vertex 1 14 3.9
      vertex 6.65108 12.777 3.9
      vertex 6.98904 12.9769 3.9
    endloop
  endfacet
  facet normal 0 0 1
    outer loop
      vertex 1 14 3.9
      vertex 6.98904 12.9769 3.9
      vertex 7.33888 13.1552 3.9
    endloop
  endfacet
  facet normal 0 0 1
    outer loop
      vertex 1 14 3.9
      vertex 7.33888 13.1552 3.9
      vertex 7.69922 13.3111 3.9
    endloop
  endfacet
  facet normal 0 0 1
    outer loop
      vertex 1 14 3.9
      vertex 7.69922 13.3111 3.9
      vertex 8.06864 13.4441 3.9
    endloop
  endfacet
  facet normal 0 0 1
    outer loop
      vertex 1 14 3.9
      vertex 8.06864 13.4441 3.9
      vertex 8.44569 13.5536 3.9
    endloop
  endfacet
  facet normal 0 0 1
    outer loop
      vertex 1 1 3.9
      vertex 3 12 3.9
      vertex 1 14 3.9
    endloop
  endfacet
  facet normal 0 0 1
    outer loop
      vertex 6.32634 12.5564 3.9
      vertex 1 14 3.9
      vertex 3 12 3.9
    endloop
  endfacet
  facet normal 0 0 1
    outer loop
      vertex 8.82887 13.6393 3.9
      vertex 1 14 3.9
      vertex 8.44569 13.5536 3.9
    endloop
  endfacet
  facet normal 0 0 1
    outer loop
      vertex 9.21667 13.7007 3.9
      vertex 1 14 3.9
      vertex 8.82887 13.6393 3.9
    endloop
  endfacet
  facet normal 0 0 1
    outer loop
      vertex 9.60756 13.7377 3.9
      vertex 1 14 3.9
      vertex 9.21667 13.7007 3.9
    endloop
  endfacet
  facet normal 0 0 1
    outer loop
      vertex 10 13.75 3.9
      vertex 1 14 3.9
      vertex 9.60756 13.7377 3.9
    endloop
  endfacet
  facet normal -0 0 1
    outer loop
      vertex 1 14 3.9
      vertex 10 13.75 3.9
      vertex 19 14 3.9
    endloop
  endfacet
  facet normal -0 0 1
    outer loop
      vertex 16.5 2.5 3.9
      vertex 19 1 3.9
      vertex 16.5 12 3.9
    endloop
  endfacet
  facet normal 0 0 1
    outer loop
      vertex 13.6737 2.44364 3.9
      vertex 16.5 2.5 3.9
      vertex 13.7463 2.5 3.9
    endloop
  endfacet
  facet normal 0 0 1
    outer loop
      vertex 13.3489 2.22295 3.9
      vertex 16.5 2.5 3.9
      vertex 13.6737 2.44364 3.9
    endloop
  endfacet
  facet normal 0 0 1
    outer loop
      vertex 13.011 2.02308 3.9
      vertex 16.5 2.5 3.9
      vertex 13.3489 2.22295 3.9
    endloop
  endfacet
  facet normal 0 0 1
    outer loop
      vertex 16.5 2.5 3.9
      vertex 13.011 2.02308 3.9
      vertex 19 1 3.9
    endloop
  endfacet
  facet normal -0 0 1
    outer loop
      vertex 12.6611 1.84483 3.9
      vertex 19 1 3.9
      vertex 13.011 2.02308 3.9
    endloop
  endfacet
  facet normal -0 0 1
    outer loop
      vertex 12.3008 1.6889 3.9
      vertex 19 1 3.9
      vertex 12.6611 1.84483 3.9
    endloop
  endfacet
  facet normal -0 0 1
    outer loop
      vertex 11.9314 1.5559 3.9
      vertex 19 1 3.9
      vertex 12.3008 1.6889 3.9
    endloop
  endfacet
  facet normal -0 0 1
    outer loop
      vertex 11.5543 1.44635 3.9
      vertex 19 1 3.9
      vertex 11.9314 1.5559 3.9
    endloop
  endfacet
  facet normal -0 0 1
    outer loop
      vertex 11.1711 1.3607 3.9
      vertex 19 1 3.9
      vertex 11.5543 1.44635 3.9
    endloop
  endfacet
  facet normal -0 0 1
    outer loop
      vertex 10.7833 1.29928 3.9
      vertex 19 1 3.9
      vertex 11.1711 1.3607 3.9
    endloop
  endfacet
  facet normal -0 0 1
    outer loop
      vertex 10.3924 1.26233 3.9
      vertex 19 1 3.9
      vertex 10.7833 1.29928 3.9
    endloop
  endfacet
  facet normal -0 0 1
    outer loop
      vertex 10 1.25 3.9
      vertex 19 1 3.9
      vertex 10.3924 1.26233 3.9
    endloop
  endfacet
  facet normal -0 0 1
    outer loop
      vertex 3 2.5 3.9
      vertex 6.32634 2.44364 3.9
      vertex 6.25369 2.5 3.9
    endloop
  endfacet
  facet normal 0 0 1
    outer loop
      vertex 3 2.5 3.9
      vertex 6.65108 2.22295 3.9
      vertex 6.32634 2.44364 3.9
    endloop
  endfacet
  facet normal 0 0 1
    outer loop
      vertex 1 1 3.9
      vertex 6.65108 2.22295 3.9
      vertex 3 2.5 3.9
    endloop
  endfacet
  facet normal 0 0 1
    outer loop
      vertex 6.65108 2.22295 3.9
      vertex 1 1 3.9
      vertex 6.98904 2.02308 3.9
    endloop
  endfacet
  facet normal 0 0 1
    outer loop
      vertex 6.98904 2.02308 3.9
      vertex 1 1 3.9
      vertex 7.33888 1.84483 3.9
    endloop
  endfacet
  facet normal 0 0 1
    outer loop
      vertex 7.33888 1.84483 3.9
      vertex 1 1 3.9
      vertex 7.69922 1.6889 3.9
    endloop
  endfacet
  facet normal 0 0 1
    outer loop
      vertex 7.69922 1.6889 3.9
      vertex 1 1 3.9
      vertex 8.06864 1.5559 3.9
    endloop
  endfacet
  facet normal 0 0 1
    outer loop
      vertex 8.06864 1.5559 3.9
      vertex 1 1 3.9
      vertex 8.44569 1.44635 3.9
    endloop
  endfacet
  facet normal 0 0 1
    outer loop
      vertex 10 1.25 3.9
      vertex 1 1 3.9
      vertex 19 1 3.9
    endloop
  endfacet
  facet normal 0 0 1
    outer loop
      vertex 9.60756 1.26233 3.9
      vertex 1 1 3.9
      vertex 10 1.25 3.9
    endloop
  endfacet
  facet normal 0 0 1
    outer loop
      vertex 9.21667 1.29928 3.9
      vertex 1 1 3.9
      vertex 9.60756 1.26233 3.9
    endloop
  endfacet
  facet normal 0 0 1
    outer loop
      vertex 8.82887 1.3607 3.9
      vertex 1 1 3.9
      vertex 9.21667 1.29928 3.9
    endloop
  endfacet
  facet normal 0 0 1
    outer loop
      vertex 8.44569 1.44635 3.9
      vertex 1 1 3.9
      vertex 8.82887 1.3607 3.9
    endloop
  endfacet
  facet normal 0 0 1
    outer loop
      vertex 3 12 3.9
      vertex 1 1 3.9
      vertex 3 2.5 3.9
    endloop
  endfacet
  facet normal 1 -0 0
    outer loop
      vertex 3 2.5 3.9
      vertex 3 12 0.4
      vertex 3 12 3.9
    endloop
  endfacet
  facet normal 1 0 0
    outer loop
      vertex 3 12 0.4
      vertex 3 2.5 3.9
      vertex 3 2.5 0.4
    endloop
  endfacet
  facet normal -1 0 0
    outer loop
      vertex 16.5 2.5 0.4
      vertex 16.5 12 3.9
      vertex 16.5 12 0.4
    endloop
  endfacet
  facet normal -1 -0 0
    outer loop
      vertex 16.5 12 3.9
      vertex 16.5 2.5 0.4
      vertex 16.5 2.5 3.9
    endloop
  endfacet
  facet normal 0 -1 0
    outer loop
      vertex 3 12 3.9
      vertex 5.66553 12 2
      vertex 5.66553 12 3.9
    endloop
  endfacet
  facet normal 0 -1 0
    outer loop
      vertex 16.5 12 0.4
      vertex 5.66553 12 2
      vertex 3 12 0.4
    endloop
  endfacet
  facet normal 0 -1 0
    outer loop
      vertex 3 12 0.4
      vertex 5.66553 12 2
      vertex 3 12 3.9
    endloop
  endfacet
  facet normal 0 -1 0
    outer loop
      vertex 14.3345 12 2
      vertex 16.5 12 3.9
      vertex 14.3345 12 3.9
    endloop
  endfacet
  facet normal 0 -1 0
    outer loop
      vertex 14.3345 12 2
      vertex 16.5 12 0.4
      vertex 16.5 12 3.9
    endloop
  endfacet
  facet normal 0 -1 0
    outer loop
      vertex 5.66553 12 2
      vertex 16.5 12 0.4
      vertex 14.3345 12 2
    endloop
  endfacet
  facet normal -0 0 1
    outer loop
      vertex 3 12 0.4
      vertex 16.5 2.5 0.4
      vertex 16.5 12 0.4
    endloop
  endfacet
  facet normal 0 0 1
    outer loop
      vertex 16.5 2.5 0.4
      vertex 3 12 0.4
      vertex 3 2.5 0.4
    endloop
  endfacet
  facet normal 0 1 0
    outer loop
      vertex 16.5 2.5 3.9
      vertex 13.7463 2.5 2
      vertex 13.7463 2.5 3.9
    endloop
  endfacet
  facet normal 0 1 0
    outer loop
      vertex 13.7463 2.5 2
      vertex 16.5 2.5 0.4
      vertex 6.25369 2.5 2
    endloop
  endfacet
  facet normal 0 1 -0
    outer loop
      vertex 16.5 2.5 0.4
      vertex 13.7463 2.5 2
      vertex 16.5 2.5 3.9
    endloop
  endfacet
  facet normal 0 1 -0
    outer loop
      vertex 6.25369 2.5 2
      vertex 3 2.5 3.9
      vertex 6.25369 2.5 3.9
    endloop
  endfacet
  facet normal 0 1 0
    outer loop
      vertex 6.25369 2.5 2
      vertex 3 2.5 0.4
      vertex 3 2.5 3.9
    endloop
  endfacet
  facet normal 0 1 0
    outer loop
      vertex 3 2.5 0.4
      vertex 6.25369 2.5 2
      vertex 16.5 2.5 0.4
    endloop
  endfacet
  facet normal 0.0314131 -0.999506 0
    outer loop
      vertex 9.60756 13.7377 2
      vertex 10 13.75 3.9
      vertex 9.60756 13.7377 3.9
    endloop
  endfacet
  facet normal 0.0314131 -0.999506 0
    outer loop
      vertex 10 13.75 3.9
      vertex 9.60756 13.7377 2
      vertex 10 13.75 2
    endloop
  endfacet
  facet normal -0.661312 -0.750111 0
    outer loop
      vertex 13.9839 12.3157 2
      vertex 14.2784 12.0561 3.9
      vertex 13.9839 12.3157 3.9
    endloop
  endfacet
  facet normal -0.661312 -0.750111 -0
    outer loop
      vertex 14.2784 12.0561 3.9
      vertex 13.9839 12.3157 2
      vertex 14.2784 12.0561 2
    endloop
  endfacet
  facet normal 0.397149 -0.917754 0
    outer loop
      vertex 7.33888 13.1552 2
      vertex 7.69922 13.3111 3.9
      vertex 7.33888 13.1552 3.9
    endloop
  endfacet
  facet normal 0.397149 -0.917754 0
    outer loop
      vertex 7.69922 13.3111 3.9
      vertex 7.33888 13.1552 2
      vertex 7.69922 13.3111 2
    endloop
  endfacet
  facet normal -0.338736 -0.940882 0
    outer loop
      vertex 11.9314 13.4441 2
      vertex 12.3008 13.3111 3.9
      vertex 11.9314 13.4441 3.9
    endloop
  endfacet
  facet normal -0.338736 -0.940882 -0
    outer loop
      vertex 12.3008 13.3111 3.9
      vertex 11.9314 13.4441 2
      vertex 12.3008 13.3111 2
    endloop
  endfacet
  facet normal -0.509041 -0.860742 0
    outer loop
      vertex 13.011 12.9769 2
      vertex 13.3489 12.777 3.9
      vertex 13.011 12.9769 3.9
    endloop
  endfacet
  facet normal -0.509041 -0.860742 -0
    outer loop
      vertex 13.3489 12.777 3.9
      vertex 13.011 12.9769 2
      vertex 13.3489 12.777 2
    endloop
  endfacet
  facet normal 0.218143 -0.975917 0
    outer loop
      vertex 8.44569 13.5536 2
      vertex 8.82887 13.6393 3.9
      vertex 8.44569 13.5536 3.9
    endloop
  endfacet
  facet normal 0.218143 -0.975917 0
    outer loop
      vertex 8.82887 13.6393 3.9
      vertex 8.44569 13.5536 2
      vertex 8.82887 13.6393 2
    endloop
  endfacet
  facet normal -0.156434 -0.987688 0
    outer loop
      vertex 10.7833 13.7007 2
      vertex 11.1711 13.6393 3.9
      vertex 10.7833 13.7007 3.9
    endloop
  endfacet
  facet normal -0.156434 -0.987688 -0
    outer loop
      vertex 11.1711 13.6393 3.9
      vertex 10.7833 13.7007 2
      vertex 11.1711 13.6393 2
    endloop
  endfacet
  facet normal -0.278992 -0.960293 0
    outer loop
      vertex 11.5543 13.5536 2
      vertex 11.9314 13.4441 3.9
      vertex 11.5543 13.5536 3.9
    endloop
  endfacet
  facet normal -0.278992 -0.960293 -0
    outer loop
      vertex 11.9314 13.4441 3.9
      vertex 11.5543 13.5536 2
      vertex 11.9314 13.4441 2
    endloop
  endfacet
  facet normal -0.562084 -0.82708 0
    outer loop
      vertex 13.3489 12.777 2
      vertex 13.6737 12.5564 3.9
      vertex 13.3489 12.777 3.9
    endloop
  endfacet
  facet normal -0.562084 -0.82708 -0
    outer loop
      vertex 13.6737 12.5564 3.9
      vertex 13.3489 12.777 2
      vertex 13.6737 12.5564 2
    endloop
  endfacet
  facet normal 0 0 1
    outer loop
      vertex 13.9839 12.3157 2
      vertex 14.3345 12 2
      vertex 14.2784 12.0561 2
    endloop
  endfacet
  facet normal 0 0 1
    outer loop
      vertex 13.6737 12.5564 2
      vertex 14.3345 12 2
      vertex 13.9839 12.3157 2
    endloop
  endfacet
  facet normal 0 0 1
    outer loop
      vertex 13.3489 12.777 2
      vertex 14.3345 12 2
      vertex 13.6737 12.5564 2
    endloop
  endfacet
  facet normal 0 0 1
    outer loop
      vertex 13.011 12.9769 2
      vertex 14.3345 12 2
      vertex 13.3489 12.777 2
    endloop
  endfacet
  facet normal 0 0 1
    outer loop
      vertex 12.6611 13.1552 2
      vertex 14.3345 12 2
      vertex 13.011 12.9769 2
    endloop
  endfacet
  facet normal 0 0 1
    outer loop
      vertex 12.3008 13.3111 2
      vertex 14.3345 12 2
      vertex 12.6611 13.1552 2
    endloop
  endfacet
  facet normal 0 0 1
    outer loop
      vertex 11.9314 13.4441 2
      vertex 14.3345 12 2
      vertex 12.3008 13.3111 2
    endloop
  endfacet
  facet normal 0 0 1
    outer loop
      vertex 11.5543 13.5536 2
      vertex 14.3345 12 2
      vertex 11.9314 13.4441 2
    endloop
  endfacet
  facet normal 0 0 1
    outer loop
      vertex 11.1711 13.6393 2
      vertex 14.3345 12 2
      vertex 11.5543 13.5536 2
    endloop
  endfacet
  facet normal 0 0 1
    outer loop
      vertex 10.7833 13.7007 2
      vertex 14.3345 12 2
      vertex 11.1711 13.6393 2
    endloop
  endfacet
  facet normal 0 0 1
    outer loop
      vertex 10.3924 13.7377 2
      vertex 14.3345 12 2
      vertex 10.7833 13.7007 2
    endloop
  endfacet
  facet normal 0 0 1
    outer loop
      vertex 10 13.75 2
      vertex 14.3345 12 2
      vertex 10.3924 13.7377 2
    endloop
  endfacet
  facet normal -0 0 1
    outer loop
      vertex 9.60756 13.7377 2
      vertex 14.3345 12 2
      vertex 10 13.75 2
    endloop
  endfacet
  facet normal -0 0 1
    outer loop
      vertex 9.21667 13.7007 2
      vertex 14.3345 12 2
      vertex 9.60756 13.7377 2
    endloop
  endfacet
  facet normal -0 0 1
    outer loop
      vertex 8.82887 13.6393 2
      vertex 14.3345 12 2
      vertex 9.21667 13.7007 2
    endloop
  endfacet
  facet normal -0 0 1
    outer loop
      vertex 8.44569 13.5536 2
      vertex 14.3345 12 2
      vertex 8.82887 13.6393 2
    endloop
  endfacet
  facet normal -0 0 1
    outer loop
      vertex 8.06864 13.4441 2
      vertex 14.3345 12 2
      vertex 8.44569 13.5536 2
    endloop
  endfacet
  facet normal -0 0 1
    outer loop
      vertex 7.69922 13.3111 2
      vertex 14.3345 12 2
      vertex 8.06864 13.4441 2
    endloop
  endfacet
  facet normal -0 0 1
    outer loop
      vertex 7.33888 13.1552 2
      vertex 14.3345 12 2
      vertex 7.69922 13.3111 2
    endloop
  endfacet
  facet normal -0 0 1
    outer loop
      vertex 6.98904 12.9769 2
      vertex 14.3345 12 2
      vertex 7.33888 13.1552 2
    endloop
  endfacet
  facet normal -0 0 1
    outer loop
      vertex 6.65108 12.777 2
      vertex 14.3345 12 2
      vertex 6.98904 12.9769 2
    endloop
  endfacet
  facet normal -0 0 1
    outer loop
      vertex 6.32634 12.5564 2
      vertex 14.3345 12 2
      vertex 6.65108 12.777 2
    endloop
  endfacet
  facet normal -0 0 1
    outer loop
      vertex 6.0161 12.3157 2
      vertex 14.3345 12 2
      vertex 6.32634 12.5564 2
    endloop
  endfacet
  facet normal 0 0 1
    outer loop
      vertex 5.66553 12 2
      vertex 6.0161 12.3157 2
      vertex 5.72158 12.0561 2
    endloop
  endfacet
  facet normal 0 0 1
    outer loop
      vertex 6.0161 12.3157 2
      vertex 5.66553 12 2
      vertex 14.3345 12 2
    endloop
  endfacet
  facet normal 0 0 1
    outer loop
      vertex 13.7463 2.5 2
      vertex 13.3489 2.22295 2
      vertex 13.6737 2.44364 2
    endloop
  endfacet
  facet normal 0 0 1
    outer loop
      vertex 13.7463 2.5 2
      vertex 13.011 2.02308 2
      vertex 13.3489 2.22295 2
    endloop
  endfacet
  facet normal 0 0 1
    outer loop
      vertex 13.7463 2.5 2
      vertex 12.6611 1.84483 2
      vertex 13.011 2.02308 2
    endloop
  endfacet
  facet normal 0 0 1
    outer loop
      vertex 13.7463 2.5 2
      vertex 12.3008 1.6889 2
      vertex 12.6611 1.84483 2
    endloop
  endfacet
  facet normal 0 0 1
    outer loop
      vertex 13.7463 2.5 2
      vertex 11.9314 1.5559 2
      vertex 12.3008 1.6889 2
    endloop
  endfacet
  facet normal 0 0 1
    outer loop
      vertex 13.7463 2.5 2
      vertex 11.5543 1.44635 2
      vertex 11.9314 1.5559 2
    endloop
  endfacet
  facet normal 0 0 1
    outer loop
      vertex 13.7463 2.5 2
      vertex 11.1711 1.3607 2
      vertex 11.5543 1.44635 2
    endloop
  endfacet
  facet normal 0 0 1
    outer loop
      vertex 13.7463 2.5 2
      vertex 10.7833 1.29928 2
      vertex 11.1711 1.3607 2
    endloop
  endfacet
  facet normal 0 0 1
    outer loop
      vertex 13.7463 2.5 2
      vertex 10.3924 1.26233 2
      vertex 10.7833 1.29928 2
    endloop
  endfacet
  facet normal 0 0 1
    outer loop
      vertex 13.7463 2.5 2
      vertex 10 1.25 2
      vertex 10.3924 1.26233 2
    endloop
  endfacet
  facet normal 0 0 1
    outer loop
      vertex 13.7463 2.5 2
      vertex 9.60756 1.26233 2
      vertex 10 1.25 2
    endloop
  endfacet
  facet normal 0 0 1
    outer loop
      vertex 13.7463 2.5 2
      vertex 9.21667 1.29928 2
      vertex 9.60756 1.26233 2
    endloop
  endfacet
  facet normal 0 0 1
    outer loop
      vertex 13.7463 2.5 2
      vertex 8.82887 1.3607 2
      vertex 9.21667 1.29928 2
    endloop
  endfacet
  facet normal 0 0 1
    outer loop
      vertex 13.7463 2.5 2
      vertex 8.44569 1.44635 2
      vertex 8.82887 1.3607 2
    endloop
  endfacet
  facet normal 0 0 1
    outer loop
      vertex 13.7463 2.5 2
      vertex 8.06864 1.5559 2
      vertex 8.44569 1.44635 2
    endloop
  endfacet
  facet normal 0 0 1
    outer loop
      vertex 13.7463 2.5 2
      vertex 7.69922 1.6889 2
      vertex 8.06864 1.5559 2
    endloop
  endfacet
  facet normal 0 0 1
    outer loop
      vertex 13.7463 2.5 2
      vertex 7.33888 1.84483 2
      vertex 7.69922 1.6889 2
    endloop
  endfacet
  facet normal 0 0 1
    outer loop
      vertex 13.7463 2.5 2
      vertex 6.98904 2.02308 2
      vertex 7.33888 1.84483 2
    endloop
  endfacet
  facet normal 0 0 1
    outer loop
      vertex 13.7463 2.5 2
      vertex 6.65108 2.22295 2
      vertex 6.98904 2.02308 2
    endloop
  endfacet
  facet normal -0 0 1
    outer loop
      vertex 6.25369 2.5 2
      vertex 6.65108 2.22295 2
      vertex 13.7463 2.5 2
    endloop
  endfacet
  facet normal 0 0 1
    outer loop
      vertex 6.65108 2.22295 2
      vertex 6.25369 2.5 2
      vertex 6.32634 2.44364 2
    endloop
  endfacet
  facet normal 0.562084 -0.82708 0
    outer loop
      vertex 6.32634 12.5564 2
      vertex 6.65108 12.777 3.9
      vertex 6.32634 12.5564 3.9
    endloop
  endfacet
  facet normal 0.562084 -0.82708 0
    outer loop
      vertex 6.65108 12.777 3.9
      vertex 6.32634 12.5564 2
      vertex 6.65108 12.777 2
    endloop
  endfacet
  facet normal 0.156434 -0.987688 0
    outer loop
      vertex 8.82887 13.6393 2
      vertex 9.21667 13.7007 3.9
      vertex 8.82887 13.6393 3.9
    endloop
  endfacet
  facet normal 0.156434 -0.987688 0
    outer loop
      vertex 9.21667 13.7007 3.9
      vertex 8.82887 13.6393 2
      vertex 9.21667 13.7007 2
    endloop
  endfacet
  facet normal 0.278992 0.960293 -0
    outer loop
      vertex 8.44569 1.44635 2
      vertex 8.06864 1.5559 3.9
      vertex 8.44569 1.44635 3.9
    endloop
  endfacet
  facet normal 0.278992 0.960293 0
    outer loop
      vertex 8.06864 1.5559 3.9
      vertex 8.44569 1.44635 2
      vertex 8.06864 1.5559 2
    endloop
  endfacet
  facet normal -0.707107 -0.707107 0
    outer loop
      vertex 14.3345 12 2
      vertex 14.2784 12.0561 3.9
      vertex 14.2784 12.0561 2
    endloop
  endfacet
  facet normal -0.707107 -0.707107 0
    outer loop
      vertex 14.2784 12.0561 3.9
      vertex 14.3345 12 2
      vertex 14.3345 12 3.9
    endloop
  endfacet
  facet normal -0.218143 -0.975917 0
    outer loop
      vertex 11.1711 13.6393 2
      vertex 11.5543 13.5536 3.9
      vertex 11.1711 13.6393 3.9
    endloop
  endfacet
  facet normal -0.218143 -0.975917 -0
    outer loop
      vertex 11.5543 13.5536 3.9
      vertex 11.1711 13.6393 2
      vertex 11.5543 13.5536 2
    endloop
  endfacet
  facet normal -0.0941082 -0.995562 0
    outer loop
      vertex 10.3924 13.7377 2
      vertex 10.7833 13.7007 3.9
      vertex 10.3924 13.7377 3.9
    endloop
  endfacet
  facet normal -0.0941082 -0.995562 -0
    outer loop
      vertex 10.7833 13.7007 3.9
      vertex 10.3924 13.7377 2
      vertex 10.7833 13.7007 2
    endloop
  endfacet
  facet normal -0.0314132 -0.999506 0
    outer loop
      vertex 10 13.75 2
      vertex 10.3924 13.7377 3.9
      vertex 10 13.75 3.9
    endloop
  endfacet
  facet normal -0.0314132 -0.999506 -0
    outer loop
      vertex 10.3924 13.7377 3.9
      vertex 10 13.75 2
      vertex 10.3924 13.7377 2
    endloop
  endfacet
  facet normal -0.453991 -0.891006 0
    outer loop
      vertex 12.6611 13.1552 2
      vertex 13.011 12.9769 3.9
      vertex 12.6611 13.1552 3.9
    endloop
  endfacet
  facet normal -0.453991 -0.891006 -0
    outer loop
      vertex 13.011 12.9769 3.9
      vertex 12.6611 13.1552 2
      vertex 13.011 12.9769 2
    endloop
  endfacet
  facet normal -0.397149 -0.917754 0
    outer loop
      vertex 12.3008 13.3111 2
      vertex 12.6611 13.1552 3.9
      vertex 12.3008 13.3111 3.9
    endloop
  endfacet
  facet normal -0.397149 -0.917754 -0
    outer loop
      vertex 12.6611 13.1552 3.9
      vertex 12.3008 13.3111 2
      vertex 12.6611 13.1552 2
    endloop
  endfacet
  facet normal -0.612907 -0.790155 0
    outer loop
      vertex 13.6737 12.5564 2
      vertex 13.9839 12.3157 3.9
      vertex 13.6737 12.5564 3.9
    endloop
  endfacet
  facet normal -0.612907 -0.790155 -0
    outer loop
      vertex 13.9839 12.3157 3.9
      vertex 13.6737 12.5564 2
      vertex 13.9839 12.3157 2
    endloop
  endfacet
  facet normal 0.661312 -0.750111 0
    outer loop
      vertex 5.72158 12.0561 2
      vertex 6.0161 12.3157 3.9
      vertex 5.72158 12.0561 3.9
    endloop
  endfacet
  facet normal 0.661312 -0.750111 0
    outer loop
      vertex 6.0161 12.3157 3.9
      vertex 5.72158 12.0561 2
      vertex 6.0161 12.3157 2
    endloop
  endfacet
  facet normal 0.509041 -0.860742 0
    outer loop
      vertex 6.65108 12.777 2
      vertex 6.98904 12.9769 3.9
      vertex 6.65108 12.777 3.9
    endloop
  endfacet
  facet normal 0.509041 -0.860742 0
    outer loop
      vertex 6.98904 12.9769 3.9
      vertex 6.65108 12.777 2
      vertex 6.98904 12.9769 2
    endloop
  endfacet
  facet normal 0.453991 -0.891006 0
    outer loop
      vertex 6.98904 12.9769 2
      vertex 7.33888 13.1552 3.9
      vertex 6.98904 12.9769 3.9
    endloop
  endfacet
  facet normal 0.453991 -0.891006 0
    outer loop
      vertex 7.33888 13.1552 3.9
      vertex 6.98904 12.9769 2
      vertex 7.33888 13.1552 2
    endloop
  endfacet
  facet normal 0.612907 -0.790155 0
    outer loop
      vertex 6.0161 12.3157 2
      vertex 6.32634 12.5564 3.9
      vertex 6.0161 12.3157 3.9
    endloop
  endfacet
  facet normal 0.612907 -0.790155 0
    outer loop
      vertex 6.32634 12.5564 3.9
      vertex 6.0161 12.3157 2
      vertex 6.32634 12.5564 2
    endloop
  endfacet
  facet normal 0.707107 -0.707107 0
    outer loop
      vertex 5.66553 12 3.9
      vertex 5.72158 12.0561 2
      vertex 5.72158 12.0561 3.9
    endloop
  endfacet
  facet normal 0.707107 -0.707107 0
    outer loop
      vertex 5.72158 12.0561 2
      vertex 5.66553 12 3.9
      vertex 5.66553 12 2
    endloop
  endfacet
  facet normal 0.278992 -0.960293 0
    outer loop
      vertex 8.06864 13.4441 2
      vertex 8.44569 13.5536 3.9
      vertex 8.06864 13.4441 3.9
    endloop
  endfacet
  facet normal 0.278992 -0.960293 0
    outer loop
      vertex 8.44569 13.5536 3.9
      vertex 8.06864 13.4441 2
      vertex 8.44569 13.5536 2
    endloop
  endfacet
  facet normal 0.338736 -0.940882 0
    outer loop
      vertex 7.69922 13.3111 2
      vertex 8.06864 13.4441 3.9
      vertex 7.69922 13.3111 3.9
    endloop
  endfacet
  facet normal 0.338736 -0.940882 0
    outer loop
      vertex 8.06864 13.4441 3.9
      vertex 7.69922 13.3111 2
      vertex 8.06864 13.4441 2
    endloop
  endfacet
  facet normal 0.0941082 -0.995562 0
    outer loop
      vertex 9.21667 13.7007 2
      vertex 9.60756 13.7377 3.9
      vertex 9.21667 13.7007 3.9
    endloop
  endfacet
  facet normal 0.0941082 -0.995562 0
    outer loop
      vertex 9.60756 13.7377 3.9
      vertex 9.21667 13.7007 2
      vertex 9.60756 13.7377 2
    endloop
  endfacet
  facet normal -0.0941082 0.995562 0
    outer loop
      vertex 10.7833 1.29928 2
      vertex 10.3924 1.26233 3.9
      vertex 10.7833 1.29928 3.9
    endloop
  endfacet
  facet normal -0.0941082 0.995562 0
    outer loop
      vertex 10.3924 1.26233 3.9
      vertex 10.7833 1.29928 2
      vertex 10.3924 1.26233 2
    endloop
  endfacet
  facet normal -0.218143 0.975917 0
    outer loop
      vertex 11.5543 1.44635 2
      vertex 11.1711 1.3607 3.9
      vertex 11.5543 1.44635 3.9
    endloop
  endfacet
  facet normal -0.218143 0.975917 0
    outer loop
      vertex 11.1711 1.3607 3.9
      vertex 11.5543 1.44635 2
      vertex 11.1711 1.3607 2
    endloop
  endfacet
  facet normal -0.397149 0.917754 0
    outer loop
      vertex 12.6611 1.84483 2
      vertex 12.3008 1.6889 3.9
      vertex 12.6611 1.84483 3.9
    endloop
  endfacet
  facet normal -0.397149 0.917754 0
    outer loop
      vertex 12.3008 1.6889 3.9
      vertex 12.6611 1.84483 2
      vertex 12.3008 1.6889 2
    endloop
  endfacet
  facet normal -0.278992 0.960293 0
    outer loop
      vertex 11.9314 1.5559 2
      vertex 11.5543 1.44635 3.9
      vertex 11.9314 1.5559 3.9
    endloop
  endfacet
  facet normal -0.278992 0.960293 0
    outer loop
      vertex 11.5543 1.44635 3.9
      vertex 11.9314 1.5559 2
      vertex 11.5543 1.44635 2
    endloop
  endfacet
  facet normal -0.61291 0.790153 0
    outer loop
      vertex 13.7463 2.5 2
      vertex 13.6737 2.44364 3.9
      vertex 13.7463 2.5 3.9
    endloop
  endfacet
  facet normal -0.61291 0.790153 0
    outer loop
      vertex 13.6737 2.44364 3.9
      vertex 13.7463 2.5 2
      vertex 13.6737 2.44364 2
    endloop
  endfacet
  facet normal -0.562084 0.82708 0
    outer loop
      vertex 13.6737 2.44364 2
      vertex 13.3489 2.22295 3.9
      vertex 13.6737 2.44364 3.9
    endloop
  endfacet
  facet normal -0.562084 0.82708 0
    outer loop
      vertex 13.3489 2.22295 3.9
      vertex 13.6737 2.44364 2
      vertex 13.3489 2.22295 2
    endloop
  endfacet
  facet normal -0.453991 0.891006 0
    outer loop
      vertex 13.011 2.02308 2
      vertex 12.6611 1.84483 3.9
      vertex 13.011 2.02308 3.9
    endloop
  endfacet
  facet normal -0.453991 0.891006 0
    outer loop
      vertex 12.6611 1.84483 3.9
      vertex 13.011 2.02308 2
      vertex 12.6611 1.84483 2
    endloop
  endfacet
  facet normal 0.612907 0.790155 -0
    outer loop
      vertex 6.32634 2.44364 2
      vertex 6.25369 2.5 3.9
      vertex 6.32634 2.44364 3.9
    endloop
  endfacet
  facet normal 0.612907 0.790155 0
    outer loop
      vertex 6.25369 2.5 3.9
      vertex 6.32634 2.44364 2
      vertex 6.25369 2.5 2
    endloop
  endfacet
  facet normal 0.509041 0.860742 -0
    outer loop
      vertex 6.98904 2.02308 2
      vertex 6.65108 2.22295 3.9
      vertex 6.98904 2.02308 3.9
    endloop
  endfacet
  facet normal 0.509041 0.860742 0
    outer loop
      vertex 6.65108 2.22295 3.9
      vertex 6.98904 2.02308 2
      vertex 6.65108 2.22295 2
    endloop
  endfacet
  facet normal 0.338736 0.940882 -0
    outer loop
      vertex 8.06864 1.5559 2
      vertex 7.69922 1.6889 3.9
      vertex 8.06864 1.5559 3.9
    endloop
  endfacet
  facet normal 0.338736 0.940882 0
    outer loop
      vertex 7.69922 1.6889 3.9
      vertex 8.06864 1.5559 2
      vertex 7.69922 1.6889 2
    endloop
  endfacet
  facet normal 0.453991 0.891006 -0
    outer loop
      vertex 7.33888 1.84483 2
      vertex 6.98904 2.02308 3.9
      vertex 7.33888 1.84483 3.9
    endloop
  endfacet
  facet normal 0.453991 0.891006 0
    outer loop
      vertex 6.98904 2.02308 3.9
      vertex 7.33888 1.84483 2
      vertex 6.98904 2.02308 2
    endloop
  endfacet
  facet normal 0.218143 0.975917 -0
    outer loop
      vertex 8.82887 1.3607 2
      vertex 8.44569 1.44635 3.9
      vertex 8.82887 1.3607 3.9
    endloop
  endfacet
  facet normal 0.218143 0.975917 0
    outer loop
      vertex 8.44569 1.44635 3.9
      vertex 8.82887 1.3607 2
      vertex 8.44569 1.44635 2
    endloop
  endfacet
  facet normal 0.0941082 0.995562 -0
    outer loop
      vertex 9.60756 1.26233 2
      vertex 9.21667 1.29928 3.9
      vertex 9.60756 1.26233 3.9
    endloop
  endfacet
  facet normal 0.0941082 0.995562 0
    outer loop
      vertex 9.21667 1.29928 3.9
      vertex 9.60756 1.26233 2
      vertex 9.21667 1.29928 2
    endloop
  endfacet
  facet normal -0.0314107 0.999507 0
    outer loop
      vertex 10.3924 1.26233 2
      vertex 10 1.25 3.9
      vertex 10.3924 1.26233 3.9
    endloop
  endfacet
  facet normal -0.0314107 0.999507 0
    outer loop
      vertex 10 1.25 3.9
      vertex 10.3924 1.26233 2
      vertex 10 1.25 2
    endloop
  endfacet
  facet normal -0.156434 0.987688 0
    outer loop
      vertex 11.1711 1.3607 2
      vertex 10.7833 1.29928 3.9
      vertex 11.1711 1.3607 3.9
    endloop
  endfacet
  facet normal -0.156434 0.987688 0
    outer loop
      vertex 10.7833 1.29928 3.9
      vertex 11.1711 1.3607 2
      vertex 10.7833 1.29928 2
    endloop
  endfacet
  facet normal -0.338736 0.940882 0
    outer loop
      vertex 12.3008 1.6889 2
      vertex 11.9314 1.5559 3.9
      vertex 12.3008 1.6889 3.9
    endloop
  endfacet
  facet normal -0.338736 0.940882 0
    outer loop
      vertex 11.9314 1.5559 3.9
      vertex 12.3008 1.6889 2
      vertex 11.9314 1.5559 2
    endloop
  endfacet
  facet normal -0.509041 0.860742 0
    outer loop
      vertex 13.3489 2.22295 2
      vertex 13.011 2.02308 3.9
      vertex 13.3489 2.22295 3.9
    endloop
  endfacet
  facet normal -0.509041 0.860742 0
    outer loop
      vertex 13.011 2.02308 3.9
      vertex 13.3489 2.22295 2
      vertex 13.011 2.02308 2
    endloop
  endfacet
  facet normal 0.562084 0.82708 -0
    outer loop
      vertex 6.65108 2.22295 2
      vertex 6.32634 2.44364 3.9
      vertex 6.65108 2.22295 3.9
    endloop
  endfacet
  facet normal 0.562084 0.82708 0
    outer loop
      vertex 6.32634 2.44364 3.9
      vertex 6.65108 2.22295 2
      vertex 6.32634 2.44364 2
    endloop
  endfacet
  facet normal 0.397149 0.917754 -0
    outer loop
      vertex 7.69922 1.6889 2
      vertex 7.33888 1.84483 3.9
      vertex 7.69922 1.6889 3.9
    endloop
  endfacet
  facet normal 0.397149 0.917754 0
    outer loop
      vertex 7.33888 1.84483 3.9
      vertex 7.69922 1.6889 2
      vertex 7.33888 1.84483 2
    endloop
  endfacet
  facet normal 0.156434 0.987688 -0
    outer loop
      vertex 9.21667 1.29928 2
      vertex 8.82887 1.3607 3.9
      vertex 9.21667 1.29928 3.9
    endloop
  endfacet
  facet normal 0.156434 0.987688 0
    outer loop
      vertex 8.82887 1.3607 3.9
      vertex 9.21667 1.29928 2
      vertex 8.82887 1.3607 2
    endloop
  endfacet
  facet normal 0.0314108 0.999507 -0
    outer loop
      vertex 10 1.25 2
      vertex 9.60756 1.26233 3.9
      vertex 10 1.25 3.9
    endloop
  endfacet
  facet normal 0.0314108 0.999507 0
    outer loop
      vertex 9.60756 1.26233 3.9
      vertex 10 1.25 2
      vertex 9.60756 1.26233 2
    endloop
  endfacet
endsolid OpenSCAD_Model
